<?xml version="1.0" standalone="no"?>
<!DOCTYPE svg PUBLIC "-//W3C//DTD SVG 1.1//EN" "http://www.w3.org/Graphics/SVG/1.1/DTD/svg11.dtd" >
<!--
2013-9-30: Created.
-->
<svg>
<metadata>
Created by iconfont
</metadata>
<defs>

<font id="iconfont" horiz-adv-x="1024" >
  <font-face
    font-family="iconfont"
    font-weight="500"
    font-stretch="normal"
    units-per-em="1024"
    ascent="896"
    descent="-128"
  />
    <missing-glyph />
    
    <glyph glyph-name="weibiaoti1" unicode="&#58923;" d="M897.138688 631.349248 109.338624 631.349248c-41.85088 0-75.776-33.92512-75.776-75.776l0-491.52c0-41.85088 33.92512-75.776 75.776-75.776l787.800064 0c41.85088 0 75.776 33.92512 75.776 75.776l0 491.52C972.914688 597.424128 938.98752 631.349248 897.138688 631.349248zM503.236608 83.167232c-125.17376 0-226.646016 101.474304-226.646016 226.646016 0 125.17376 101.472256 226.646016 226.646016 226.646016 125.175808 0 226.646016-101.472256 226.646016-226.646016C729.884672 184.641536 628.412416 83.167232 503.236608 83.167232zM503.238656 309.813248m-157.507584 0a76.908 76.908 0 1 0 315.015168 0 76.908 76.908 0 1 0-315.015168 0ZM633.673728 699.385856c-4.907008 10.139648-18.13504 18.434048-29.39904 18.434048l-202.072064 0c-11.264 0-24.49408-8.296448-29.39904-18.434048L329.201664 609.28c-4.907008-10.139648 0.29696-18.434048 11.56096-18.434048l324.952064 0c11.264 0 16.46592 8.296448 11.56096 18.434048L633.673728 699.385856zM585.158656 673.445888c0-2.627584-9.216-4.777984-20.48-4.777984l-122.88 0c-11.264 0-20.48 2.1504-20.48 4.777984 0 2.629632 9.216 4.777984 20.48 4.777984l122.88 0C575.942656 678.22592 585.158656 676.07552 585.158656 673.445888z"  horiz-adv-x="1024" />

    
    <glyph glyph-name="yanjing" unicode="&#58961;" d="M31.838238 328.982163C14.254465 359.367675 13.818359 409.195313 31.838237 439.017837 31.838237 439.017837 191.999994 768 512 768 832.000006 768 992.16176 439.017837 992.16176 439.017837 1009.745536 408.632325 1010.181638 358.804687 992.16176 328.982163 992.16176 328.982163 832 0 512 0 192 0 31.838238 328.982163 31.838238 328.982163ZM512 128C653.384896 128 768 242.615104 768 384 768 525.384896 653.384896 640 512 640 370.615104 640 256 525.384896 256 384 256 242.615104 370.615104 128 512 128ZM512 384m-192 0a3 3 0 1 0 384 0 3 3 0 1 0-384 0Z"  horiz-adv-x="1024" />

    
    <glyph glyph-name="jiantou" unicode="&#58905;" d="M830.687738 292.928818c0-9.614985-3.933589-17.949814-11.799744-25.007557-7.867178-7.05672-17.222243-10.56052-28.065196-10.512425L232.716714 257.408837c-10.789741 0-20.144806 3.5038-28.064172 10.512425-7.919367 7.009647-11.852956 15.344476-11.799744 25.007557 0.053212 9.660011 3.986801 17.996886 11.799744 25.00551l279.05253 248.641917c7.867178 7.009647 17.22122 10.513448 28.065196 10.513448 10.842952 0 20.196994-3.504824 28.064172-10.513448l279.05253-248.641917C826.754149 310.925704 830.687738 302.588829 830.687738 292.928818z"  horiz-adv-x="1024" />

    
    <glyph glyph-name="fenxiang" unicode="&#58944;" d="M814.545455 34.909091c0-51.2-41.890909-93.090909-93.090909-93.090909L162.909091-58.181818c-51.2 0-93.090909 41.890909-93.090909 93.090909L69.818182 593.454545c0 51.2 41.890909 93.090909 93.090909 93.090909l349.090909 0 69.818182 69.818182L139.636364 756.363636c-76.8 0-139.636364-62.836364-139.636364-139.636364l0-605.090909c0-76.8 62.836364-139.636364 139.636364-139.636364l605.090909 0c76.8 0 139.636364 62.836364 139.636364 139.636364L884.363636 453.818182l-69.818182-69.818182L814.545455 34.909091zM977.454545 896 686.545455 896C667.927273 896 651.636364 879.709091 651.636364 861.090909S667.927273 826.181818 686.545455 826.181818L907.636364 826.181818 395.636364 314.181818l0-46.545455 0 0 46.545455 0L954.181818 779.636364l0-221.090909c0-18.618182 16.290909-34.909091 34.909091-34.909091s34.909091 16.290909 34.909091 34.909091L1024 849.454545C1024 875.054545 1003.054545 896 977.454545 896z"  horiz-adv-x="1024" />

    
    <glyph glyph-name="iconfontqianbipencil82" unicode="&#58912;" d="M895.856847 582.83701l-78.107152-78.107152L632.709534 689.771313l78.069657 78.107152c26.508929 26.508929 53.017859 0 53.017859 0l132.059798-132.022303C895.856847 635.854869 922.365776 609.345939 895.856847 582.83701zM116.361413-11.654465l224.336162 39.37099L155.246261 213.167838 116.361413-11.654465zM181.262584 238.338586l185.06602-185.06602 423.00897 423.00897L604.271554 661.347556 181.262584 238.338586z"  horiz-adv-x="1024" />

    
    <glyph glyph-name="refresh" unicode="&#59034;" d="M913.312 511.911h-181.167c-23.112 0-41.807 18.727-41.807 41.809 0 23.081 18.696 41.807 41.807 41.807h72.727c-65.604 92.7-173.484 153.296-295.704 153.296-200.114 0-362.338-162.225-362.338-362.336 0-200.113 162.225-362.337 362.338-362.337 200.113 0 362.337 162.225 362.337 362.337 0 23.081 18.695 41.807 41.806 41.807 23.083 0 41.81-18.727 41.81-41.807 0-246.292-199.68-445.954-445.954-445.954-246.277 0-445.955 199.661-445.955 445.954 0 246.291 199.678 445.953 445.955 445.953 149.469 0 281.489-73.692 362.337-186.597v75.109c0 23.083 18.695 41.808 41.806 41.808 23.083 0 41.81-18.725 41.81-41.808v-167.232c0-23.083-18.729-41.809-41.81-41.809z"  horiz-adv-x="1024" />

    
    <glyph glyph-name="weibiaoti40" unicode="&#58937;" d="M1008 384.8 1008 384.8l-160-144 0 0c-8.8-8-20-12.8-32-12.8-26.4 0-48 21.6-48 48 0 14.4 6.4 26.4 16 35.2l0 0 67.2 60L624 371.2l0 0L416 371.2l0 0L172.8 371.2l0 0L48 371.2c-26.4 0-48 21.6-48 48 0 26.4 21.6 48 48 48l304 0 112 0c0 0 0 0 0 0l96 0 0 0 291.2 0L784 528l0 0c-9.6 8.8-16 21.6-16 35.2 0 26.4 21.6 48 48 48 12 0 23.2-4.8 32-12.8l0 0 160-144 0 0c9.6-8.8 16-21.6 16-35.2C1024 405.6 1017.6 393.6 1008 384.8z"  horiz-adv-x="1024" />

    
    <glyph glyph-name="chuangkouwindow29" unicode="&#58958;" d="M845.8752 779.56096 178.1248 779.56096c-34.22208 0-62.06464-27.83232-62.06464-62.04416l0-667.0336c0-34.21184 27.84256-62.0544 62.06464-62.0544l667.76064 0c34.22208 0 62.06464 27.84256 62.06464 62.0544L907.95008 717.5168C907.93984 751.73888 880.09728 779.56096 845.8752 779.56096zM803.81952 708.93568c14.68416 0 26.58304-11.90912 26.58304-26.59328 0-14.6944-11.89888-26.59328-26.58304-26.59328-14.70464 0-26.60352 11.90912-26.60352 26.59328C777.216 697.02656 789.12512 708.93568 803.81952 708.93568zM708.51584 708.93568c14.70464 0 26.60352-11.90912 26.60352-26.59328 0-14.6944-11.89888-26.59328-26.60352-26.59328-14.68416 0-26.58304 11.90912-26.58304 26.59328C681.94304 697.02656 693.84192 708.93568 708.51584 708.93568zM837.0176 589.73184l0-242.81088L186.9824 346.92096 186.9824 589.73184 837.0176 589.73184zM186.9824 59.35104 186.9824 319.61088l650.0352 0 0-260.27008L186.9824 59.3408z"  horiz-adv-x="1024" />

    
    <glyph glyph-name="chuangkouwindow33" unicode="&#58963;" d="M845.88544 779.56096 178.11456 779.56096c-34.21184 0-62.0544-27.83232-62.0544-62.04416l0-667.0336c0-34.21184 27.84256-62.0544 62.0544-62.0544l667.77088 0c34.21184 0 62.0544 27.84256 62.0544 62.0544L907.93984 717.5168C907.93984 751.73888 880.09728 779.56096 845.88544 779.56096zM803.81952 708.93568c14.6944 0 26.59328-11.90912 26.59328-26.59328 0-14.6944-11.89888-26.59328-26.59328-26.59328s-26.59328 11.90912-26.59328 26.59328C777.22624 697.02656 789.12512 708.93568 803.81952 708.93568zM708.52608 708.93568c14.6944 0 26.59328-11.90912 26.59328-26.59328 0-14.6944-11.89888-26.59328-26.59328-26.59328s-26.59328 11.90912-26.59328 26.59328C681.9328 697.02656 693.83168 708.93568 708.52608 708.93568zM559.79008 59.35104 186.97216 59.35104 186.97216 589.73184l372.81792 0L559.79008 59.35104zM837.02784 59.35104 587.10016 59.35104 587.10016 589.73184l249.92768 0L837.02784 59.35104zM808.96 435.2 619.52 435.2 619.52 552.96 808.96 552.96 808.96 435.2zM808.96 271.36 619.52 271.36 619.52 389.12 808.96 389.12 808.96 271.36zM808.96 104.96 619.52 104.96l0 117.76L808.96 222.72 808.96 104.96z"  horiz-adv-x="1024" />

    
    <glyph glyph-name="suo" unicode="&#58917;" d="M765.604952 531.936307l-42.267663 0 0 84.535325c0 116.65793-94.679359 211.337289-211.337289 211.337289s-211.337289-94.679359-211.337289-211.337289l0-84.535325-42.267663 0c-46.705742 0-84.535325-37.829584-84.535325-84.535325l0-422.674579c0-46.705742 37.829584-84.535325 84.535325-84.535325l507.209904 0c46.705742 0 84.535325 37.829584 84.535325 84.535325L850.140277 447.400982C850.140277 494.106724 812.310693 531.936307 765.604952 531.936307zM512 151.529391c-46.705742 0-84.535325 37.829584-84.535325 84.535325 0 46.705742 37.829584 84.535325 84.535325 84.535325s84.535325-37.829584 84.535325-84.535325C596.534302 189.357951 558.705742 151.529391 512 151.529391zM643.029242 531.936307 380.970758 531.936307l0 84.535325c0 72.27714 58.752102 131.029242 131.029242 131.029242S643.029242 688.748772 643.029242 616.471632L643.029242 531.936307z"  horiz-adv-x="1024" />

    
    <glyph glyph-name="shaixuan" unicode="&#58882;" d="M450.235284-1.17143c-6.412037 0-12.825097 3.206018-16.031115 3.206018-9.618055 6.412037-16.031115 19.237133-16.031115 28.855188l0 278.938943-282.144962 407.185816c-6.412037 9.618055-9.618055 22.443152-3.206018 35.268248 6.41306 9.618055 16.031115 16.031115 28.856211 16.031115l705.361893 0c12.825097 0 22.443152-6.412037 28.855188-16.031115 6.41306-9.618055 3.206018-22.443152-3.206018-32.06223l-282.143938-410.391834 0-214.814484c0-12.825097-6.41306-22.443152-19.237133-28.856211l-128.247896-64.123436C459.854363-1.17143 456.648344-1.17143 450.235284-1.17143z"  horiz-adv-x="1024" />

    
    <glyph glyph-name="gantanhao" unicode="&#58896;" d="M512 891.87328c280.49408 0 507.87328-227.3792 507.87328-507.87328 0-280.49408-227.3792-507.87328-507.87328-507.87328C231.50592-123.87328 4.12672 103.50592 4.12672 384 4.12672 664.49408 231.50592 891.87328 512 891.87328zM512 210.03264c-42.47552 0-76.91264-34.42688-76.91264-76.91264 0-42.47552 34.43712-76.91264 76.91264-76.91264 42.47552 0 76.91264 34.43712 76.91264 76.91264C588.91264 175.60576 554.47552 210.03264 512 210.03264zM509.78816 270.16192c36.58752 0 66.24256 29.66528 66.24256 66.24256l0 309.1456c0 36.58752-29.65504 66.24256-66.24256 66.24256-36.58752 0-66.24256-29.66528-66.24256-66.24256l0-309.1456C443.5456 299.81696 473.20064 270.16192 509.78816 270.16192z"  horiz-adv-x="1024" />

    
    <glyph glyph-name="xiangpian" unicode="&#59003;" d="M126.811174 658.838555 126.811174 658.838555l0-550.428218c0-27.52182 27.51875-55.04364 55.039547-55.04364l660.511405 0c33.027208 0 55.044664 22.017456 55.044664 55.04364L897.40679 658.838555c0 27.520797-27.52182 55.039547-55.044664 55.039547L181.850721 713.878103C148.82863 713.878103 126.811174 691.860646 126.811174 658.838555L126.811174 658.838555 126.811174 658.838555zM71.76651 658.838555 71.76651 658.838555c0 60.543911 49.539276 110.084211 110.084211 110.084211l660.511405 0c60.548004 0 110.087281-49.539276 110.087281-110.084211l0-550.428218c0-60.548004-49.539276-110.083188-110.087281-110.083188L181.850721-1.67285c-60.543911 0-110.084211 49.535183-110.084211 110.083188L71.76651 658.838555 71.76651 658.838555zM71.76651 658.838555M99.288331 135.932158l214.663034 258.69897c22.017456 22.017456 49.539276 22.017456 66.052368 0l159.623487-203.65533 154.119123 154.1181c22.017456 22.018479 55.044664 22.018479 71.556733-5.503341l159.624511-203.6584-27.52182-93.571119L154.328901 25.84897 99.288331 135.932158 99.288331 135.932158zM99.288331 135.932158M567.150064 521.232524c0-10.81123 2.148943-21.61325 6.284123-31.596625 4.137227-9.987468 10.255575-19.144012 17.897625-26.787086 7.643074-7.643074 16.799618-13.761422 26.787086-17.898649 9.984399-4.134157 20.786419-6.284123 31.593556-6.284123 10.81123 0 21.61325 2.148943 31.596625 6.284123 9.984399 4.137227 19.144012 10.255575 26.787086 17.898649 7.643074 7.643074 13.761422 16.799618 17.894555 26.787086 4.13825 9.983375 6.287193 20.786419 6.287193 31.596625 0 10.806113-2.148943 21.609157-6.287193 31.592532-4.133134 9.988492-10.251481 19.144012-17.894555 26.787086-7.643074 7.643074-16.803711 13.761422-26.787086 17.898649-9.983375 4.134157-20.785396 6.284123-31.596625 6.284123-10.806113 0-21.609157-2.148943-31.593556-6.284123-9.987468-4.137227-19.144012-10.255575-26.787086-17.898649-7.643074-7.643074-13.761422-16.799618-17.897625-26.787086C569.300031 542.841681 567.150064 532.038638 567.150064 521.232524L567.150064 521.232524zM567.150064 521.232524"  horiz-adv-x="1024" />

    
    <glyph glyph-name="liuyan" unicode="&#59350;" d="M190.378755 139.973821C190.378755 139.973819 173.654715 88.096568 147.089287 45.736634 111.737726-10.633242 64-61.543579 64-61.543579 64-61.543579 285.883926-61.543579 403.668086 28.009112 444.586173 16.759314 474.645213 16 512 16 759.423568 16 960 198.667822 960 424 960 649.332178 759.423568 832 512 832 264.576432 832 64 649.332178 64 424 64 313.592102 112.154154 213.427013 190.378755 139.973821Z"  horiz-adv-x="1024" />

    
    <glyph glyph-name="liebiao" unicode="&#58980;" d="M921.698544 346.951199l-566.082756 0c-20.748556 0-37.539988 16.790408-37.539988 37.539988 0 20.733207 16.791431 37.542035 37.539988 37.542035l566.082756 0c20.756743 0 37.546128-16.807804 37.546128-37.542035C959.244672 363.741607 942.455287 346.951199 921.698544 346.951199L921.698544 346.951199zM921.698544 647.275195l-566.082756 0c-20.748556 0-37.539988 16.808828-37.539988 37.541011 0 20.73116 16.791431 37.539988 37.539988 37.539988l566.082756 0c20.756743 0 37.546128-16.808828 37.546128-37.539988C959.244672 664.084023 942.455287 647.275195 921.698544 647.275195L921.698544 647.275195zM136.509559 9.092331c-41.464367 0-75.086116 33.616632-75.086116 75.075883 0 41.46539 33.621748 75.079976 75.086116 75.079976 41.460274 0 75.080999-33.615609 75.080999-75.079976C211.590558 42.70794 177.969832 9.092331 136.509559 9.092331L136.509559 9.092331zM136.509559 309.411211c-41.464367 0-75.086116 33.621748-75.086116 75.078952 0 41.467437 33.621748 75.083046 75.086116 75.083046 41.460274 0 75.080999-33.615609 75.080999-75.083046C211.590558 343.033983 177.969832 309.411211 136.509559 309.411211L136.509559 309.411211zM136.509559 609.736231c-41.464367 0-75.086116 33.615609-75.086116 75.079976 0 41.46539 33.621748 75.082022 75.086116 75.082022 41.460274 0 75.080999-33.615609 75.080999-75.082022C211.590558 643.350816 177.969832 609.736231 136.509559 609.736231L136.509559 609.736231zM355.615788 121.713318l566.082756 0c20.756743 0 37.546128-16.791431 37.546128-37.541011s-16.789385-37.541011-37.546128-37.541011l-566.082756 0c-20.748556 0-37.539988 16.791431-37.539988 37.541011S334.866209 121.713318 355.615788 121.713318L355.615788 121.713318zM355.615788 121.713318"  horiz-adv-x="1024" />

    
    <glyph glyph-name="cuohao" unicode="&#58883;" d="M124.844444 35.195902l355.093716 348.356517-357.097536 350.397906 37.212818 35.704985 356.879705-349.908421 356.366377 349.398706 34.940954-37.929525-354.280555-347.626804 357.097535-350.413801-37.218236-35.691619-356.88404 349.921786-356.090025-349.134274-36.020713 36.924544z"  horiz-adv-x="1024" />

    
    <glyph glyph-name="wujiaoxing" unicode="&#58939;" d="M992 496.8l-331.2 50.4-148.8 316.8-148.8-316.8-331.2-50.4 240-244.8-57.6-348 297.6 163.2 297.6-163.2-57.6 348 240 244.8zM512 139.2l-223.2-124.8 43.2 249.6-192 194.4 259.2 33.6 112.8 240 112.8-240 259.2-36-192-192 40.8-252-220.8 127.2z"  horiz-adv-x="1024" />

    
    <glyph glyph-name="santiaogang" unicode="&#59124;" d="M0 390.865208c0 0.722653 0.722653 2.16796 0.722653 2.890614 3.613267 18.788991 13.007763 33.242061 29.628793 42.636556 7.226535 4.335921 15.175723 5.781228 23.124912 6.503881 2.890614 0 5.781228 0 8.671842 0 299.9012 0 599.079746 0 898.980946 0 20.234298 0 35.410021-8.671842 46.972477-24.570219 8.671842-12.285109 12.285109-25.292872 10.839802-40.468596-2.890614-23.124912-18.788991-43.35921-42.636556-49.140438-6.503881-1.445307-13.007763-2.16796-20.234298-2.16796-161.151729 0-322.303458 0-483.455187 0-138.026817 0-276.053634 0-414.080452 0-23.847565 0-39.745942 11.562456-51.308398 31.0741-3.613267 5.781228-5.058574 12.285109-6.503881 18.788991 0 0.722653-0.722653 2.16796-0.722653 2.890614C0 383.638673 0 387.251941 0 390.865208L0 390.865208zM0 690.766408c0 0.722653 0.722653 2.16796 0.722653 2.890614 3.613267 18.788991 13.007763 33.242061 29.628793 42.636556 7.226535 4.335921 15.175723 5.781228 23.124912 6.503881 2.890614 0 5.781228 0 8.671842 0 299.9012 0 599.079746 0 898.980946 0 20.234298 0 35.410021-8.671842 46.972477-24.570219 8.671842-12.285109 12.285109-25.292872 10.839802-40.468596-2.890614-23.124912-18.788991-43.35921-42.636556-49.140438-6.503881-1.445307-13.007763-2.16796-20.234298-2.16796-161.151729 0-322.303458 0-483.455187 0-138.026817 0-276.053634 0-414.080452 0-23.847565 0-39.745942 11.562456-51.308398 31.0741-3.613267 5.781228-5.058574 12.285109-6.503881 18.788991C0.722653 677.758645 0 679.203952 0 679.926606 0 683.539873 0 687.15314 0 690.766408L0 690.766408zM51.308398 33.151729c-1.445307 0-2.16796 0.722653-3.613267 0.722653-16.62103 3.613267-28.183486 13.007763-36.855328 27.460833-6.503881 10.839802-9.394495 22.402258-8.671842 34.687368 2.16796 24.570219 19.511644 46.249824 44.804517 52.031052 5.058574 1.445307 10.839802 1.445307 16.62103 1.445307 67.206775 0 134.41355 0 200.897671 0 232.694425 0 466.111503 0 698.805928 0 19.511644 0 34.687368-8.671842 46.249824-23.847565 7.226535-10.117149 11.562456-22.402258 11.562456-34.687368 0-14.45307-5.058574-27.460833-14.45307-38.300635-9.394495-10.839802-21.679605-17.343684-36.132675-18.788991-0.722653 0-1.445307 0-2.16796-0.722653C662.673253 33.151729 356.990826 33.151729 51.308398 33.151729L51.308398 33.151729zM1024 706.664785c-0.722653 2.16796-0.722653 5.058574-1.445307 7.226535L1024 706.664785z"  horiz-adv-x="1024" />

    
    <glyph glyph-name="duihao" unicode="&#58894;" d="M443.118 42.036c0 0-0.001 0-0.001 0-14.133 0-26.977 5.727-36.227 15.040l-356.211 356.165c-9.317 9.317-15.040 22.089-15.040 36.252 0 28.383 22.995 51.307 51.307 51.307 14.149 0 27.052-5.727 36.252-15.040l319.939-319.935 480.428 480.428c9.317 9.328 22.089 15.092 36.252 15.092s27.052-5.732 36.252-15.092c9.317-9.317 15.075-22.089 15.075-36.252 0-14.149-5.727-27.052-15.075-36.252l-516.716-516.716c-9.317-9.317-22.081-15.040-36.227-15.040 0 0-0.001 0-0.001 0z"  horiz-adv-x="1024" />

    
    <glyph glyph-name="A" unicode="&#58933;" d="M832 0h-101.44l-72.576 210.24H361.856L293.44 0H192L462.848 768h98.24L832 0zM629.504 297.024L522.112 616.32c-3.392 10.176-7.04 28.096-11.008 53.504H508.8c-3.392-23.168-7.232-40.96-11.456-53.504L390.784 297.024h238.72z"  horiz-adv-x="1024" />

    
    <glyph glyph-name="plus" unicode="&#58903;" d="M810.688 832h-597.376c-82.448-0.036-149.276-66.864-149.312-149.309l-0-597.379c0.036-82.448 66.864-149.276 149.309-149.312l597.379-0c82.448 0.036 149.276 66.864 149.312 149.309l0 597.379c-0.036 82.448-66.864 149.276-149.309 149.312zM778.432 326.912h-213.184v-194.048c0.020-0.557 0.032-1.211 0.032-1.868 0-30.115-24.413-54.528-54.528-54.528-30.115 0-54.528 24.413-54.528 54.528 0 0.657 0.012 1.311 0.035 1.962l-0.003 193.954h-213.184c-31.529 0-57.088 25.559-57.088 57.088 0 31.529 25.559 57.088 57.088 57.088h213.12v196.48c0 30.115 24.413 54.528 54.528 54.528 30.115 0 54.528-24.413 54.528-54.528v-196.48h213.184c31.529-0 57.088-25.559 57.088-57.088 0-31.529-25.559-57.088-57.088-57.088z"  horiz-adv-x="1024" />

    
    <glyph glyph-name="chart5" unicode="&#58962;" d="M561.216 440.501s3.132 389.524 0 389.524c224.092 0 389.527-165.432 389.527-389.524-0.001-1.248-389.527 0-389.527 0zM918.297 360.563c0-233.058-188.93-421.985-421.985-421.985-233.058 0-421.988 188.927-421.988 421.985 0 233.055 188.93 421.982 421.988 421.982 10.956 0 21.715-0.786 32.458-1.615v-372.892h387.007c1.613-14.935 2.519-32.113 2.519-47.475zM883.807 373.546h-387.495v376.541c-215.13 0-389.527-174.397-389.527-389.524 0-215.13 174.397-389.527 389.527-389.527 215.127 0 389.52 174.397 389.52 389.527-0.001 41.89-2.025 12.983-2.025 12.983z"  horiz-adv-x="1024" />

    
    <glyph glyph-name="hongqi" unicode="&#58895;" d="M297.2 699.7v-459.9s92.2 111.5 234.4 52.5c55.1-32.1 107.6-75.6 192.2-75.6 84.5 0 143.5 52.5 143.5 52.5v442s-125.5-129.4-285-19.2c-41.6 30.8-112.1 58.9-171 43.6-59-15.4-114.1-35.9-114.1-35.9M195.6 26.8c-21.1 0-38.2 17.1-38.2 38.2V704.7c0 21.1 17.1 38.2 38.2 38.2s38.2-17.1 38.2-38.2V65c0-21-17.1-38.2-38.2-38.2m0 0z"  horiz-adv-x="1024" />

    
    <glyph glyph-name="sanjiaoleft" unicode="&#58913;" d="M639.955 383.998l-255.91 191.442v-382.883l255.911 191.439z"  horiz-adv-x="1024" />

    
    <glyph glyph-name="arrow-bottom" unicode="&#59237;" d="M193.8 347.9l293.2-293.2v754.3h50v-754.3l293.2 293.2 35.4-35.4-353.6-353.5-353.6 353.6 35.4 35.3z"  horiz-adv-x="1024" />

    
    <glyph glyph-name="arrow-top" unicode="&#59238;" d="M830.2 420.1l-293.2 293.2v-754.3h-50v754.3l-293.2-293.2-35.4 35.4 353.6 353.5 353.6-353.6-35.4-35.3z"  horiz-adv-x="1024" />

    
    <glyph glyph-name="guimo_scale" unicode="&#59259;" d="M892.544 712.928a121.952 121.952 0 0 1-91.584 41.44h-157.952c-61.824 0-103.68-35.84-131.04-75.392-27.36 39.552-69.184 75.392-130.976 75.392h-158.08a121.92 121.92 0 0 1-91.616-41.472l-128-145.92c6.528-89.088 80.096-159.52 170.848-159.52 90.752 0 164.288 70.432 170.848 159.52L240.832 682.016h140.128c28.864 0 50.272-16.768 66.976-37.92v-477.888h-124.864c-34.56 0-62.592-28.032-62.592-62.624v-22.752h-17.184c-34.56 0-62.592-28.032-62.592-62.624v-52.384h641.984v52.384a62.624 62.624 0 0 1-62.624 62.624h-15.328v22.752a62.624 62.624 0 0 1-62.624 62.624H555.52V611.808c16.672 33.28 44.992 70.176 87.488 70.176h140.096l-104.16-115.04c6.56-89.088 80.128-159.52 170.848-159.52 90.848 0 164.288 70.432 170.912 159.52l-128.16 145.984zM105.12 566.976L175.36 646.848l70.304-79.904H105.12z m673.152 0l70.336 79.904 70.208-79.904h-140.544z"  horiz-adv-x="1024" />

    
    <glyph glyph-name="weibiaoti1-copy" unicode="&#58888;" d="M923.328 484.928h-263.232c102.018 389.185-70.271 409.088-70.271 409.088-73.024 0-57.92-59.648-63.424-69.632 0-190.335-195.648-339.456-195.648-339.456v-539.773c0-53.249 70.271-72.448 97.859-72.448h395.52c37.184 0 67.52 100.8 67.52 100.8 97.859 343.744 97.859 446.081 97.859 446.081 0 71.044-66.177 65.344-66.177 65.344zM222.656 484.732h-157.632c-32.576 0-33.024-33.024-33.024-33.024l32.512-544.32c0-34.687 33.6-34.687 33.6-34.687h136.448c28.416 0 28.16 22.849 28.16 22.849v547.904c0 41.792-40.063 41.28-40.063 41.28z"  horiz-adv-x="1024" />

    
    <glyph glyph-name="f11" unicode="&#58880;" d="M370.02499547102286 512.1830338276819l284.652757616345 0c15.753162352176458 0 28.49454516839243-12.642404146020084 28.49454516839243-28.394152517193746 0-7.325835575498272-2.809580252560329-13.94750861160296-7.325835575498272-18.964313209531518l-140.7702927145929-187.82899446872491c-9.432667269667817-12.440204862619918-27.190854683812347-15.05041379378568-39.73428015963655-5.619160505120658-2.208638326371029 1.6062824191789298-4.113270737140412 3.5123288109511113-5.619160505120658 5.619160505120658L347.3489821291456 466.8310071439276c-9.330860637466337 12.441618843622715-6.82104435749926 30.30019890896592 5.71955315631934 39.63247352743506C358.18714651559515 510.37738008710846 364.10607099330895 512.1830338276819 370.02499547102286 512.1830338276819L370.02499547102286 512.1830338276819z"  horiz-adv-x="1024" />

    
    <glyph glyph-name="detail-table" unicode="&#58889;" d="M75.70546119111123 820.2951202133333l0-799.2396526933334 872.5890776177775 0 1.1642948266666666 800.4039486577778L75.70546119111123 820.2951202133333zM875.5295903288888 92.65146311111107L147.30611484444444 92.65146311111107l0 509.3441570133334 729.3877714488889 1.1642948266666666L875.5295903288888 92.65146311111107zM220.86860458666666 529.85240576l217.12589141333333 0 0-72.76494734222223-217.12589141333333 0 0 72.76494734222223ZM220.86860458666666 384.58214741333336l217.12589141333333 0 0-72.76494734222223-217.12589141333333 0 0 72.76494734222223ZM220.86860458666666 238.468940231111l217.12589141333333 0 0-72.76494734222223-217.12589141333333 0 0 72.76494734222223ZM585.2708340622223 529.69289728l218.29018624 0 0-72.76494734222223-218.29018624 0 0 72.76494734222223ZM585.2708340622223 384.42263893333336l218.29018624 0 0-72.76494734222223-218.29018624 0 0 72.76494734222223ZM585.2708340622223 238.3094317511111l218.29018624 0 0-72.76611242666667-218.29018624 0 0 72.76611242666667Z"  horiz-adv-x="1024" />

    
    <glyph glyph-name="ring" unicode="&#58892;" d="M857.9427734374999 165.55312500000014c-37.5732421875 31.640625-67.362890625 73.374609375-90.9826171875 127.63828124999998-26.657226562500007 61.034765625000006-39.598242187500006 131.02382812500002-40.81640624999999 220.09218749999997-1.1390625 78.78515625-38.395898437499994 135.5484375-113.92207031250003 173.48554687499998-13.0517578125 6.5337890625-27.179296875000006 10.662890625000001-42.1611328125 15.045117187499999-6.818554687500001 2.0566406249999996-13.66875 4.0025390625-20.344921874999997 6.26484375L544.21015625 709.8984375l0.44296875 5.774414062500001c1.3921875000000001 17.7029296875-1.83515625 31.419140624999994-9.3181640625 39.55078125C530.1142578125 760.8082031250001 522.8685546875 763.6875 513.771875 763.6875c-11.975976562500001 0-21.547265625-3.7810546875-27.622265625000004-10.884374999999999-7.134960937500001-8.321484375-9.587109375-20.946093750000003-7.134960937500001-36.529101562499996l0.9333984375000001-6.169921875-5.869335937500001-2.0091796875c-6.945117187499999-2.3572265625-14.0642578125-4.4771484375-21.135937499999997-6.5654296875-15.2666015625-4.5720703125-29.726367187500003-8.827734375-42.9837890625-15.662109375000004-73.46953124999999-37.937109375000006-110.18847656250001-94.320703125-112.1185546875-172.20410156250003-1.107421875-44.075390625-5.537109375-87.8501953125-13.257421875-130.074609375C268.5728515625 295.70683593749993 230.09785156249995 223.36054687499995 170.12304687499994 168.62226562500007c-11.45390625-10.5046875-12.0234375-13.4630859375-4.9517578124999995-26.720507812499996C174.26796875000002 125.00566406249982 187.81015624999998 116.17792968749995 206.6046875 115.0546875c2.2306640625-0.18984374999999998 4.445507812500001-0.2056640625 6.676171874999999-0.2056640625l9.508007812499999 0.06328125000000001 183.357421875 0 1.297265625-5.7427734374999995c16.1525390625-70.4478515625 47.85644531249999-102.80039062499999 102.80039062499999-104.74628906250001L514.119921875 4.3125c21.183398437500003 0 40.515820312500004 6.423046875000001 57.475195312500006 19.0318359375 28.413281250000004 21.041015624999996 42.7306640625 48.66328125 43.758984375 84.3697265625l0.2056640625 7.214062500000001 133.7607421875-0.047460937499999994c21.3890625 0 42.809765625000004 0 64.2146484375 0.06328125000000001 23.445703124999998 0.1107421875 42.129492187500006 13.2099609375 48.694921875 34.1876953125C864.66640625 156.8994140625 863.6380859375 160.74374999999986 857.9427734374999 165.55312500000014zM513.0757812500001 24.404296875000114l-2.626171875 0.047460937499999994c-43.331835937499996 1.1865234374999998-80.52539062500001 36.8455078125-81.31640625 77.8359375-0.1107421875 4.9517578124999995 2.6578125 8.906835937499999 4.888476562499999 12.055078125 0.664453125 1.044140625 1.4080078125 1.9933593749999998 1.9458984375000001 2.97421875l5.347265625 9.8244140625 6.9767578125-8.7328125c0.6328124999999999-0.8068359375 1.4080078125-1.5820312499999998 2.183203125-2.3888671875 2.5787109375000004-2.5787109375000004 5.790234375000002-5.790234375000002 6.6287109375-10.5046875 6.13828125-32.8904296875 19.1900390625-46.1478515625 51.93808593749999-52.55507812499999 4.7935546875-0.9333984375000001 8.321484375-4.192382812500001 11.1216796875-6.818554687500001 0.9333984375000001-0.8859375 1.83515625-1.7560546875 2.8318359374999997-2.499609375l7.91015625-5.916796874999999L513.0757812500001 24.404296875000114z"  horiz-adv-x="1024" />

    
    <glyph glyph-name="wenbenbianji_" unicode="&#58940;" d="M320.578894 75.770854L205.829146-38.978894V870.271357a25.728643 25.728643 0 1 1-51.457287 0v-909.250251L44.253266 75.770854a25.728643 25.728643 0 0 1-36.534673-36.0201l154.371859-160.032161a25.728643 25.728643 0 0 1 36.534674 0l154.371859 160.032161a25.728643 25.728643 0 0 1-36.534673 36.0201zM389.017085 690.170854h613.885428a25.728643 25.728643 0 0 1 0 51.457287H389.017085a25.728643 25.728643 0 0 1 0-51.457287zM1002.902513 587.256281H389.017085a25.728643 25.728643 0 0 1 0-51.457286h613.885428a25.728643 25.728643 0 0 1 0 51.457286zM1002.902513 432.884422H389.017085a25.728643 25.728643 0 0 1 0-51.457286h613.885428a25.728643 25.728643 0 0 1 0 51.457286zM695.702513 278.512563h-308.743719a25.728643 25.728643 0 0 1 0-51.457287h308.743719a25.728643 25.728643 0 0 1 0 51.457287z"  horiz-adv-x="1028" />

    
    <glyph glyph-name="right" unicode="&#58881;" d="M356.51594248 383.66031316l403.41955066 403.42645486c16.95396363 16.9429169 16.95396364 44.44374273 0 61.38804047-16.9429169 16.95396363-44.44374273 16.95396364-61.38804047 0l-434.11840383-434.12116552c-16.95810615-16.9429169-16.95810615-44.44374273 0-61.38804047l434.11978467-434.11978467c8.47422013-8.47836265 19.58446539-12.71892482 30.69332982-12.71892482s22.22049052 4.24056217 30.69332982 12.71892482c16.95810615 16.9429169 16.95810615 44.44374273 0 61.38804047l-403.42231235 403.4278357z"  horiz-adv-x="1024" />

    
    <glyph glyph-name="wenhao" unicode="&#58904;" d="M192 576c0 64 12.8 115.2 25.6 147.2s38.4 64 70.4 89.6c32 32 64 51.2 108.8 64C435.2 889.6 473.6 896 518.4 896c89.6 0 160-25.6 224-76.8C800 768 832 704 832 620.8c0-38.4-12.8-70.4-25.6-102.4s-44.8-70.4-96-115.2S640 326.4 620.8 307.2s-25.6-44.8-38.4-70.4S576 192 576 128H448c0 64 6.4 96 12.8 128s19.2 57.6 38.4 83.2 38.4 57.6 83.2 102.4 76.8 76.8 89.6 96c12.8 19.2 25.6 51.2 25.6 96s-19.2 76.8-51.2 108.8-76.8 51.2-134.4 51.2C384 793.6 320 704 320 576H192z m384-704H448v128h128v-128z"  horiz-adv-x="1024" />

    
    <glyph glyph-name="sousuo" unicode="&#58893;" d="M465.14943557 798.10239963a354.8766162 354.8766162 0 0 0 251.74504862-104.28930602 354.8766162 354.8766162 0 0 0 104.31291655-251.74502807c0-83.87563046-29.03751005-160.99396559-77.56723069-221.85694827l164.23084457-166.31002725a39.14984215 39.14984215 0 0 0-0.35438974-55.23979423h-0.0236322a39.14984215 39.14984215 0 0 0-55.21616271 0.3780427l-163.73468593 165.81384703a354.64034238 354.64034238 0 0 0-223.4163196-78.81945397c-98.31168557 0-187.33799764 39.88227516-251.74504849 104.28930559S109.11510175 343.75637994 109.11510175 442.06806554s39.88227516 187.31436617 104.28930532 251.74502807A354.94751105 354.94751105 0 0 0 465.14943557 798.10239963z m194.94588356-161.11208192c-49.87647022 49.87647022-118.81986598 80.73325692-194.94588356 80.73323621s-145.06941354-30.85678682-194.92223122-80.73323621a274.82854992 274.82854992 0 0 1-80.75688825-194.92225217c0-76.12599681 30.88041841-145.06941354 80.73325618-194.9458835s118.81986598-80.7568678 194.92225216-80.75686767c76.14962814 0 145.06941354 30.88041841 194.94586298 80.75686767s80.73325692 118.81986598 80.73325706 194.9458835a274.59227585 274.59227585 0 0 1-80.70962535 194.92225217z"  horiz-adv-x="1024" />

    
    <glyph glyph-name="icon-quanpingfangdax" unicode="&#58999;" d="M1152 583.808l-129.408 109.056-155.584-145.664-74.944 64.768 152.192 159.68-113.92 124.224L1152 896v-312.128zM129.344 692.864l155.52-145.664 75.008 64.768-152.192 159.68L321.664 895.872 0.064 896v-312.192l129.28 109.056z m814.848-694.272l-148.928 152.128 66.24 73.408 163.2-148.864L1152 186.624 1152-127.936h-319.232l111.488 126.528z m-736.512 0l148.928 152.128L290.432 224l-163.2-148.8-127.104 111.36L0-128h319.168l-111.424 126.592zM366.528 537.6h418.88v-307.2H366.528z"  horiz-adv-x="1216" />

    
    <glyph glyph-name="fenpingfangshi" unicode="&#58890;" d="M0 896h962.875977v-668.853394H0V896z m1004.848274 0H1464.501394v-314.841966H1004.848274V896z m0-354.579017H1464.501394v-314.841966H1004.848274V541.420983zM1.644251 186.841966h459.65312V-128H1.644251V186.841966z m501.5552 0h459.65312V-128H503.199451V186.841966z m501.648823 0H1464.501394V-128H1004.848274V186.841966z"  horiz-adv-x="1464" />

    
    <glyph glyph-name="shangxia" unicode="&#58924;" d="M188.6 569.3H289v-512h82v512h100.4L330 710.7 188.6 569.3zM735 198.7V710.3h-82v-511.6H552.6L694 57.3l141.4 141.4H735z"  horiz-adv-x="1024" />

    
    <glyph glyph-name="laji" unicode="&#58887;" d="M676.495 732.16V896H346.194v-163.84H102.4v-81.92h819.2v81.92H676.495zM184.32-87.04h655.36V568.32H184.32v-655.36z m409.6 491.52h81.92V76.8h-81.92V404.48z m-245.76 0h81.92V76.8h-81.92V404.48z"  horiz-adv-x="1024" />

    
    <glyph glyph-name="danchu" unicode="&#58952;" d="M484.28654 686.33139h0.006021-0.006021zM486.612954 686.412068c-0.768246-0.048166-1.540105-0.079474-2.320393-0.080678 0.520192 0.003612 20.982274 0.072249 2.320393 0.080678zM874.611025 294.679934c-20.434387 0-37.001051-16.56546-37.001051-37.001051 0-0.192664 0.026491-0.379307 0.028899-0.570766v-255.288951c0-15.627429-12.895218-28.296267-28.803213-28.296267H156.487426c-15.907996 0-28.803214 12.668838-28.803214 28.296267v656.296634c0 15.627429 12.895218 28.296267 28.803214 28.296268H482.682615l3.930339-0.001204c19.350654 1.201739 34.674638 17.267478 34.674637 36.920373 0 20.24654-16.268036 36.671115-36.442326 36.973356v0.021675h-0.428677c-0.043349 0-0.085494 0.006021-0.130048 0.00602s-0.085494-0.006021-7.282685-0.00602H77.201523c-12.372618 0-28.199936-15.54916-28.199936-34.730029v-799.143475c0-19.180869 15.828522-34.730029 35.353778-34.730028H876.270341c19.525255 0 35.353777 15.54916 35.353777 34.730028V257.716212h-0.012042c-0.022879 20.418733-16.577502 36.963723-37.001051 36.963722zM958.578654 834.593283H742.79779c-19.510806 0-35.327286-15.81648-35.327286-35.327286 0-19.510806 15.81648-35.327286 35.327286-35.327286h126.599275L473.80323 368.34608c-13.329915-13.329915-13.329915-34.941959 0-48.271874l4.09049-4.09049c13.329915-13.329915 34.941959-13.329915 48.271874 0l397.085774 397.086978V583.487541c0-19.510806 15.81648-35.327286 35.327286-35.327286s35.327286 15.81648 35.327286 35.327286V799.267201c-0.001204 19.509601-15.817685 35.326082-35.327286 35.326082z"  horiz-adv-x="1024" />

    
    <glyph glyph-name="cuowu" unicode="&#58906;" d="M499.752592 371.655013m-499.655003 0a499.655003 499.655003 0 1 1 999.310007 0 499.655003 499.655003 0 1 1-999.310007 0ZM738.74773 149.152394l-8.099876-8.490231c-11.125131-11.613075-29.764605-11.905842-41.37768-0.780711L260.562277 552.682363c-11.613075 11.125131-11.905842 29.764605-0.780711 41.37768l8.099876 8.490231c11.125131 11.613075 29.764605 11.905842 41.37768 0.780711l428.707897-412.800911c11.613075-11.125131 12.003431-29.764605 0.780711-41.37768zM276.762029 132.074343l-8.490231 8.099876c-11.613075 11.125131-11.905842 29.764605-0.780711 41.37768l412.800911 428.707896c11.125131 11.613075 29.764605 11.905842 41.37768 0.780711l8.490231-8.099876c11.613075-11.125131 11.905842-29.764605 0.780711-41.37768L318.237298 132.855053c-11.22272-11.613075-29.862194-11.905842-41.475269-0.78071z"  horiz-adv-x="1024" />

    
    <glyph glyph-name="kanbanshitu" unicode="&#59064;" d="M991.008 672H33.008A32.992 32.992 0 0 0 0 704.992V798.992C0 817.232 14.768 832 33.008 832h958C1009.232 832 1024 817.232 1024 798.992v-94A32.992 32.992 0 0 0 991.008 672zM224 512.368v-576.752A31.632 31.632 0 0 0 192.368-96H31.632A31.632 31.632 0 0 0 0-64.368V512.384C0 529.84 14.16 544 31.632 544h160.752c17.456 0 31.616-14.16 31.616-31.632zM624 512.368v-448.752A31.632 31.632 0 0 0 592.368 32H431.632A31.632 31.632 0 0 0 400 63.632V512.368c0 17.472 14.16 31.632 31.632 31.632h160.752c17.456 0 31.616-14.16 31.616-31.632zM1024 512.368v-320.752A31.632 31.632 0 0 0 992.368 160H831.632A31.632 31.632 0 0 0 800 191.632V512.368c0 17.472 14.16 31.632 31.632 31.632h160.752c17.456 0 31.616-14.16 31.616-31.632z"  horiz-adv-x="1024" />

    
    <glyph glyph-name="touxiang" unicode="&#58914;" d="M637.672727 183.854545c-25.6 4.654545-25.6 74.472727-25.6 74.472728s74.472727 74.472727 90.763637 172.218182c44.218182 0 69.818182 104.727273 27.927272 141.963636C733.090909 612.072727 786.618182 877.381818 512 877.381818s-221.090909-267.636364-218.763636-304.872727c-44.218182-37.236364-16.290909-141.963636 27.927272-141.963636 16.290909-97.745455 90.763636-172.218182 90.763637-172.218182s0-69.818182-25.6-74.472728C304.872727 172.218182 0 37.236364 0-109.381818h1024c0 146.618182-304.872727 281.6-386.327273 293.236363z"  horiz-adv-x="1024" />

    
    <glyph glyph-name="left" unicode="&#58884;" d="M669.95205843 384.34507869l-409.82303559-409.83004937c-17.22307416-17.21185209-17.22307416-45.14919896 1e-8-62.36245382 17.21185209-17.22307416 45.14919896-17.22307416 62.3624538 0l441.00917214 441.01197767c17.22728244 17.21185208 17.22728243 45.14919896 1e-8 62.36245382l-441.0105749 441.0105749c-8.60873156 8.61293983-19.89532992 12.92081252-31.18052554 12.92081251s-22.57319672-4.30787268-31.18052551-12.92081251c-17.22728244-17.21185208-17.22728243-45.14919896 0-62.36245381l409.8258411-409.83145214z"  horiz-adv-x="1024" />

    
    <glyph glyph-name="report" unicode="&#58886;" d="M576 153.60000000000002L324.266667 153.60000000000002c-12.8 0-21.333333-8.533333-21.333333-21.333333s8.533333-21.333333 21.333333-21.333333l251.733333 0c12.8 0 21.333333 8.533333 21.333333 21.333333S584.533333 153.60000000000002 576 153.60000000000002zM699.733333 320L324.266667 320c-12.8 0-21.333333-8.533333-21.333333-21.333333 0-12.8 8.533333-21.333333 21.333333-21.333333l375.466667 0c12.8 0 21.333333 8.533333 21.333333 21.333333C721.066667 311.46666700000003 712.533333 320 699.733333 320zM324.266667 614.4L426.666667 614.4c12.8 0 21.333333 8.533333 21.333333 21.333333 0 12.8-8.533333 21.333333-21.333333 21.333333L324.266667 657.066667c-12.8 0-21.333333-8.533333-21.333333-21.333333C302.933333 622.933333 311.466667 614.4 324.266667 614.4zM678.4 840.533333l-64 0L221.866667 840.533333c-46.933333 0-85.333333-38.4-85.333333-85.333333l0-750.933333c0-46.933333 38.4-85.333333 85.333333-85.333333l584.533333 0c46.933333 0 85.333333 38.4 85.333333 85.333333L891.733333 571.733333l0 42.666667L678.4 840.533333zM844.8 8.53333299999997c0-21.333333-17.066667-42.666667-42.666667-42.666667L221.866667-34.13333299999999c-21.333333 0-42.666667 17.066667-42.666667 42.666667L179.2 759.466667c0 21.333333 17.066667 42.666667 42.666667 42.666667L597.333333 802.133333l0-209.066667c0-21.333333 17.066667-42.666667 42.666667-42.666667l209.066667 0L849.066667 8.53333299999997zM635.733333 593.066667L635.733333 802.133333l21.333333 0 187.733333-209.066667L635.733333 593.066667zM302.933333 469.333333c0-12.8 8.533333-21.333333 21.333333-21.333333l375.466667 0c12.8 0 21.333333 8.533333 21.333333 21.333333 0 12.8-8.533333 21.333333-21.333333 21.333333L324.266667 490.666667C311.466667 486.4 302.933333 477.866667 302.933333 469.333333z"  horiz-adv-x="1024" />

    
    <glyph glyph-name="rili" unicode="&#59025;" d="M844.8 426.666667H341.333333c-25.6 0-42.666667-17.066667-42.666666-42.666667s17.066667-42.666667 42.666666-42.666667h503.466667c25.6 0 42.666667 17.066667 42.666667 42.666667s-17.066667 42.666667-42.666667 42.666667z m0-221.866667H341.333333c-25.6 0-42.666667-17.066667-42.666666-42.666667s17.066667-42.666667 42.666666-42.666666h503.466667c25.6 0 42.666667 17.066667 42.666667 42.666666s-17.066667 42.666667-42.666667 42.666667z m256 614.4h-153.6V853.333333c0 25.6-17.066667 42.666667-42.666667 42.666667s-42.666667-17.066667-42.666666-42.666667v-34.133333H332.8V853.333333c0 25.6-17.066667 42.666667-42.666667 42.666667s-42.666667-17.066667-42.666666-42.666667v-34.133333H93.866667C42.666667 819.2 0 776.533333 0 725.333333v-759.466666c0-51.2 42.666667-93.866667 93.866667-93.866667h1006.933333c51.2 0 93.866667 42.666667 93.866667 93.866667V725.333333c0 51.2-42.666667 93.866667-93.866667 93.866667zM93.866667 725.333333h153.6v-25.6c0-25.6 17.066667-42.666667 42.666666-42.666666s42.666667 17.066667 42.666667 42.666666V725.333333h529.066667v-25.6c0-25.6 17.066667-42.666667 42.666666-42.666666s42.666667 17.066667 42.666667 42.666666V725.333333h153.6v-128H93.866667V725.333333z m1006.933333-759.466666H93.866667V512h1006.933333v-546.133333z"  horiz-adv-x="1194" />

    
    <glyph glyph-name="jinghao" unicode="&#59191;" d="M911.6 558.1l-25.9-103.7c-2.1-7.4-6.9-11.1-14.3-11.1H719.9l-29.6-118.5h144c4.7 0 8.5-1.9 11.6-5.6 3.1-4.3 4-8.7 2.8-13l-26.1-103.7c-1.6-7.4-6.3-11.1-14.3-11.1H656.9l-37.5-151.9c-2.1-7.4-6.9-11.1-14.3-11.1H501.4c-5 0-9 1.9-12.1 5.6-2.8 3.7-3.7 8-2.8 13l36.1 144.4H405.1l-37.5-151.9c-2.1-7.4-6.9-11.1-14.3-11.1H249c-4.7 0-8.5 1.9-11.6 5.6-2.8 3.7-3.7 8-2.8 13l36.1 144.3h-144c-4.7 0-8.5 1.9-11.6 5.6-2.8 3.7-3.7 8-2.8 13l26 103.9c2.1 7.4 6.9 11.1 14.3 11.1H304l29.6 118.5H189.7c-4.7 0-8.5 1.9-11.6 5.6-3.1 4.3-4 8.7-2.8 13l26 103.8c1.6 7.4 6.3 11.1 14.3 11.1H367l37.5 151.9c2.1 7.4 7.1 11.1 14.8 11.1H523c4.7 0 8.5-1.9 11.6-5.6 2.8-3.7 3.7-8 2.8-13l-36.1-144.4H619l37.5 151.9c2.1 7.4 7.1 11.1 14.8 11.1H775c4.7 0 8.5-1.9 11.6-5.6 2.8-3.7 3.7-8 2.8-13l-36.1-144.4h144c4.7 0 8.5-1.9 11.6-5.6 2.7-3.9 3.7-8.2 2.7-13.2zM556 324.8l29.6 118.5H468l-29.6-118.5H556z"  horiz-adv-x="1024" />

    
    <glyph glyph-name="wenjianjia" unicode="&#59292;" d="M907.6 490.5v-334.7c0-29.2-10.5-54.2-31.4-75.1-20.9-20.9-46-31.4-75.1-31.4H222.9c-29.2 0-54.2 10.5-75.1 31.4s-31.4 46-31.4 75.1V612.2c0 29.2 10.5 54.2 31.4 75.1s46 31.4 75.1 31.4H375c29.2 0 54.2-10.5 75.1-31.4s31.4-46 31.4-75.1V597H801c29.2 0 54.2-10.5 75.1-31.4 21-20.9 31.5-45.9 31.5-75.1z"  horiz-adv-x="1024" />

    
    <glyph glyph-name="tuji" unicode="&#58891;" d="M798.49900044 510.52159689a115.00732688 115.00732688 0 1 0 115.00732781 115.0073278 115.15616062 115.15616062 0 0 0-115.00732781-115.00732782z m0 183.68699717a68.66613938 68.66613938 0 1 1 68.67967031-68.63907937 68.74732124 68.74732124 0 0 1-68.67967031 68.63907937zM1005.72867387 180.76176377000002a23.10970781 23.10970781 0 0 0-16.38516185 6.76513686l-144.77392876 144.77392968-130.16123438-129.95827969a23.17735875 23.17735875 0 0 0-32.78385374 0l-223.24951688 223.24951782L236.62732045 203.81735061999996a23.18141812 23.18141812 0 0 0-32.78385374 32.78385375l238.13281968 238.13281876a23.17735875 23.17735875 0 0 0 32.78385281 0l223.2495178-223.24951782 130.05299159 130.05299156a23.17735875 23.17735875 0 0 0 32.78385374 0l161.26733342-161.25380343a23.17735875 23.17735875 0 0 0-16.38516188-39.57605063zM1106.36685013 32.21288813000001H67.37712576A26.24873157 26.24873157 0 0 0 41.11486419 58.47514968999997V837.73773844A26.24873157 26.24873157 0 0 0 67.37712576 864h1038.98972437a26.24873157 26.24873157 0 0 0 26.26226156-26.26226156v-779.23552875a26.24873157 26.24873157 0 0 0-26.26226156-26.28932157zM93.63938731 84.76447125000004H1080.10458951V811.47547687H93.63938731zM1226.13683451-95.99998687000004h-1038.98972531a26.24873157 26.24873157 0 0 0-26.26226157 26.26226157v128.23993499a26.26226156 26.26226156 0 0 0 52.52452313 0v-101.97767344h986.4652022V683.23554187h-93.54831283a26.26226156 26.26226156 0 1 0 0 52.52452313h119.81057438a26.24873157 26.24873157 0 0 0 26.26226155-26.26226155v-779.23552875a26.24873157 26.24873157 0 0 0-26.26226155-26.26226158z"  horiz-adv-x="1292" />

    
    <glyph glyph-name="chilun" unicode="&#58885;" d="M999.044 490.717l-111.908 37.326c-2.21 5.74-4.6 11.444-7.166 17.148l52.8 105.525c7.023 14.046 4.278 31.016-6.846 42.14L822.681 796.1c-11.124 11.158-28.057 13.868-42.14 6.845l-105.56-52.763a386.34 386.34 0 0 1-17.113 7.13L620.542 869.22c-4.956 14.9-18.895 24.954-34.617 24.954H439.9c-15.721 0-29.661-10.054-34.617-24.956l-37.326-111.906a370.898 370.898 0 0 1-17.112-7.13L245.284 802.946c-14.046 7.058-31.016 4.313-42.14-6.845L99.9 692.856c-11.123-11.124-13.868-28.094-6.845-42.14l52.763-105.561a368.886 368.886 0 0 1-7.13-17.112L26.78 490.717C11.88 485.76 1.825 471.82 1.825 456.1v-146.025c0-15.722 10.054-29.661 24.956-34.617l111.908-37.326a350.66 350.66 0 0 1 7.166-17.149l-52.8-105.525c-7.024-14.045-4.28-31.015 6.844-42.139l103.244-103.243c11.158-11.158 28.128-13.904 42.139-6.845l105.561 52.762a386.34 386.34 0 0 1 17.113-7.13l37.325-111.907c4.956-14.902 18.896-24.956 34.617-24.956h146.025c15.722 0 29.662 10.054 34.652 24.956l37.255 111.871a435.511 435.511 0 0 1 17.148 7.166l105.562-52.762c14.011-7.024 30.98-4.313 42.139 6.845l103.243 103.243c11.124 11.124 13.87 28.094 6.845 42.14l-52.762 105.56a386.34 386.34 0 0 1 7.13 17.113l111.908 37.326c14.901 4.956 24.955 18.895 24.955 34.617V456.1c0.002 15.721-10.052 29.661-24.954 34.617z m-48.056-154.332l-103.673-34.58c-10.873-3.602-19.43-12.157-23.066-23.03-4.635-13.87-10.518-27.986-17.505-41.997a36.508 36.508 0 0 1 0.037-32.586l48.912-97.86-66.025-66.025-97.86 48.912c-10.231 5.133-22.353 5.133-32.586 0.037-14.01-6.987-28.164-12.87-41.996-17.505a36.545 36.545 0 0 1-23.102-23.066l-34.509-103.673H466.21l-34.58 103.673c-3.602 10.873-12.157 19.43-23.03 23.066-13.869 4.635-27.986 10.518-41.997 17.505-10.267 5.098-22.39 5.098-32.586-0.037l-97.86-48.912-66.025 66.025 48.947 97.86a36.554 36.554 0 0 1 0 32.657c-6.952 13.903-12.833 28.022-17.504 41.925-3.636 10.874-12.193 19.43-23.067 23.03l-103.67 34.58V429.79l103.672 34.58c10.873 3.602 19.43 12.157 23.067 23.03 4.67 13.94 10.552 28.022 17.468 41.855a36.511 36.511 0 0 1 0.036 32.691l-48.947 97.897 66.025 66.025 97.897-48.947a36.396 36.396 0 0 1 32.691 0.036c13.832 6.916 27.915 12.8 41.855 17.468 10.873 3.636 19.43 12.193 23.03 23.067l34.578 103.67h93.405l34.58-103.672c3.602-10.873 12.157-19.43 23.03-23.066 13.87-4.635 27.986-10.518 41.997-17.505 10.231-5.062 22.353-5.062 32.586 0.036l97.86 48.913 66.025-66.025-48.947-97.86a36.554 36.554 0 0 1 0-32.657c6.953-13.904 12.834-28.022 17.505-41.926 3.636-10.873 12.193-19.43 23.066-23.03l103.672-34.58v-93.405zM512.913 565.619c-100.785 0-182.532-81.747-182.532-182.532 0-100.819 81.747-182.53 182.532-182.53 100.819 0 182.53 81.711 182.53 182.53 0 100.785-81.711 182.532-182.53 182.532z m0-292.05c-60.393 0-109.52 49.126-109.52 109.518s49.127 109.52 109.52 109.52S622.43 443.48 622.43 383.086 573.305 273.57 512.913 273.57z"  horiz-adv-x="1024" />

    
    <glyph glyph-name="arrow_right" unicode="&#59060;" d="M512.1721736 237.74177153999995l-378.21230145 378.20582873c-15.88398459 15.89692997-41.6660088 15.89692997-57.55128794 0-15.89822451-15.8839846-15.89822451-41.6660088 0-57.55128793l406.98729813-406.98729813c15.88398459-15.89692997 41.6660088-15.89692997 57.55128795 0l406.9860036 406.98729813c7.94846498 7.94328684 11.92399202 18.3604363 11.92399201 28.77499669s-3.97552703 20.83170987-11.92399201 28.77499671c-15.88398459 15.89692997-41.6660088 15.89692997-57.55128794 0l-378.2110069-378.20582875z"  horiz-adv-x="1024" />

    
    <glyph glyph-name="dakuohao" unicode="&#58930;" d="M390.9954544-43.44318223000005h-31.17272696c-80.84431846 0-134.98409092 11.27159122-162.42272754 33.81477275-27.43522734 22.53977315-41.15340878 67.46931826-41.15340878 134.7875007v91.38409101c0 33.20227266-9.98295469 61.83295489-29.95113692 85.89886347-19.96363653 24.06477305-22.41136406 36.09545449-64.2954542 36.09545449v65.33977237c45.77840948 0 49.19886386 10.20454541 67.2204542 30.61477265 18.0170455 20.4079544 27.02613604 50.41022695 27.02613692 90.00795499V643.30340948c0 67.31363672 13.71931787 112.17159052 41.15340878 134.55909052C224.83863652 800.25 278.97840898 811.44318223 359.82159102 811.44318223h31.17272695v-65.33522754h-34.09204482c-45.45568213 0-75.08181797-6.62727305-88.88295499-19.87840899-13.79886328-13.25000039-20.7-41.50568144-20.7-84.75909081v-122.45113653c0-53.61136347-11.19772705-89.63295469-33.60568183-108.05795508-22.39886338-18.42954521-37.58749981-31.75795459-102.52727227-39.98522724 62.98863662-7.00340888 77.69090918-20.48181855 101.06704512-40.43409083 23.37954521-19.95227315 35.06477256-55.97386347 35.06477256-108.05795419v-95.49772735c0-43.55795479 6.90113672-71.88863643 20.7-84.98863652 13.80113613-13.09431797 43.42727286-19.64545488 88.88295498-19.645454h34.09204482v-65.79545537zM691.23977247-43.44318223000005h30.60568212c79.37386348 0 132.52613643 11.27159122 159.46477294 33.81477275 26.93636367 22.53977315 40.40909121 67.46931826 40.40909034 134.7875007v91.38409101c0 33.20227266 9.79999981 61.83295489 29.40568242 85.89886347 19.60113604 24.06477305 22.00227276 36.09545449 63.12499981 36.09545449v65.33977237c-44.94659062 0-48.30340869 10.20454541-65.99659132 30.61477265-17.68863604 20.4079544-26.53409092 50.41022695-26.53409091 90.00795499V643.30340948c0 67.31363672-13.47159112 112.17159052-40.40909034 134.55909052C854.37159102 800.25 801.21818164 811.44318223 721.84545459 811.44318223h-30.60568213v-65.33522754h33.47045507c44.62954541 0 73.71590888-6.62727305 87.26818185-19.87840899 13.54659082-13.25000039 20.32159131-41.50568144 20.32159042-84.75909081v-122.45113653c0-53.61136347 10.99545469-89.63295469 32.98977335-108.05795508 21.99318223-18.42954521 36.91022695-31.75795459 100.66363593-39.98522724-61.84090898-7.00340888-76.27386357-20.48181855-99.22613642-40.43409083s-34.42727286-55.97386347-34.42727286-108.05795419v-95.49772735c0-43.55795479-6.77499961-71.88863643-20.32159042-84.98863652-13.55227295-13.09431797-42.6375-19.64545488-87.26818185-19.645454h-33.47045507v-65.79545537z"  horiz-adv-x="1083" />

    
    <glyph glyph-name="qubiezhen" unicode="&#58979;" d="M672 800L149.333 288c-42.666-32-64-85.333-64-138.667s21.334-106.666 64-149.333 96-64 149.334-64c64 0 117.333 21.333 160 64l490.666 490.667L992 448 490.667-42.667C437.333-96 373.333-128 298.667-128c-64 0-128 32-181.334 74.667l-10.666 10.666C53.333 10.667 32 74.667 32 149.333c0 64 21.333 128 74.667 181.334l522.666 512 21.334-21.334-21.334 21.334c32 32 85.334 53.333 128 53.333C810.667 896 864 874.667 896 842.667 938.667 800 949.333 757.333 949.333 704c0-42.667-10.666-96-53.333-128L448 138.667c-21.333-21.334-53.333-32-74.667-32s-53.333 0-74.666 21.333v10.667c-21.334 21.333-32 42.666-32 74.666 0 21.334 10.666 53.334 32 74.667l426.666 426.667L768 672 330.667 245.333C320 234.667 320 224 320 213.333s0-32 10.667-42.666 32-10.667 42.666-10.667 21.334 0 32 10.667l448 448C885.333 640 896 672 896 704c0 42.667-10.667 74.667-42.667 96C832 821.333 800 842.667 757.333 842.667c-32 0-64-21.334-85.333-42.667z"  horiz-adv-x="1024" />

    
    <glyph glyph-name="xianshi" unicode="&#58936;" d="M957.2 740.2H66.8C30 740.2 0 710.2 0 673.4v-578.8c0-36.8 30-66.8 66.8-66.8h890.4c36.8 0 66.8 30 66.8 66.8V673.4c0 36.8-30 66.8-66.8 66.8z m22.3-645.6c0-12.3-10-22.3-22.3-22.3H66.8c-12.3 0-22.3 10-22.3 22.3V673.4c0 12.3 10 22.3 22.3 22.3h890.4c12.3 0 22.3-10 22.3-22.3v-578.8zM311.7 651.1H133.6c-24.6 0-44.5-20-44.5-44.5V473c0-12.3 10-22.3 22.3-22.3s22.3 10 22.3 22.3V606.6h178.1c12.3 0 22.3 10 22.3 22.3-0.2 12.3-10.2 22.2-22.4 22.2zM912.7 317.2c-12.3 0-22.3-10-22.3-22.3v-133.6H712.3c-12.3 0-22.3-10-22.3-22.3s10-22.3 22.3-22.3h178.1c24.5 0 44.5 20 44.5 44.5V295c0.1 12.3-9.9 22.2-22.2 22.2z"  horiz-adv-x="1024" />

    
    <glyph glyph-name="fenping-" unicode="&#58990;" d="M577.29 705.33v-645.59c0.01-50.78 35.53-91.95 79.34-91.96h190.09c43.82 0 79.34 41.17 79.34 91.96V705.33c-0.01 50.78-35.53 91.95-79.34 91.96H656.64c-43.82-0.02-79.33-41.18-79.35-91.96zM444.63 207.15c19.06 0 34.51-9.74 34.51-21.76v-195.85c0-12.02-15.45-21.76-34.51-21.76H134.01c-19.06 0-34.51 9.74-34.51 21.76V185.39c0 12.02 15.45 21.76 34.51 21.76h310.62zM444.63 502.22c19.06 0 34.51-9.74 34.51-21.76v-195.85c0-12.02-15.45-21.76-34.51-21.76H134.01c-19.06 0-34.51 9.74-34.51 21.76V480.46c0 12.02 15.45 21.76 34.51 21.76h310.62zM444.63 797.29c19.06 0 34.51-9.74 34.51-21.76v-195.85c0-12.02-15.45-21.76-34.51-21.76H134.01c-19.06 0-34.51 9.74-34.51 21.76V775.53c0 12.02 15.45 21.76 34.51 21.76h310.62z"  horiz-adv-x="1024" />

    
    <glyph glyph-name="tuji1-copy" unicode="&#59351;" d="M798.49900044 510.52159689a115.00732688 115.00732688 0 1 0 115.00732781 115.0073278 115.15616062 115.15616062 0 0 0-115.00732781-115.00732782z m0 183.68699717a68.66613938 68.66613938 0 1 1 68.67967031-68.63907937 68.74732124 68.74732124 0 0 1-68.67967031 68.63907937zM1005.72867387 180.76176377000002a23.10970781 23.10970781 0 0 0-16.38516185 6.76513686l-144.77392876 144.77392968-130.16123438-129.95827969a23.17735875 23.17735875 0 0 0-32.78385374 0l-223.24951688 223.24951782L236.62732045 203.81735061999996a23.18141812 23.18141812 0 0 0-32.78385374 32.78385375l238.13281968 238.13281876a23.17735875 23.17735875 0 0 0 32.78385281 0l223.2495178-223.24951782 130.05299159 130.05299156a23.17735875 23.17735875 0 0 0 32.78385374 0l161.26733342-161.25380343a23.17735875 23.17735875 0 0 0-16.38516188-39.57605063zM1106.36685013 32.21288813000001H67.37712576A26.24873157 26.24873157 0 0 0 41.11486419 58.47514968999997V837.73773844A26.24873157 26.24873157 0 0 0 67.37712576 864h1038.98972437a26.24873157 26.24873157 0 0 0 26.26226156-26.26226156v-779.23552875a26.24873157 26.24873157 0 0 0-26.26226156-26.28932157zM93.63938731 84.76447125000004H1080.10458951V811.47547687H93.63938731zM1226.13683451-95.99998687000004h-1038.98972531a26.24873157 26.24873157 0 0 0-26.26226157 26.26226157v128.23993499a26.26226156 26.26226156 0 0 0 52.52452313 0v-101.97767344h986.4652022V683.23554187h-93.54831283a26.26226156 26.26226156 0 1 0 0 52.52452313h119.81057438a26.24873157 26.24873157 0 0 0 26.26226155-26.26226155v-779.23552875a26.24873157 26.24873157 0 0 0-26.26226155-26.26226158z"  horiz-adv-x="1292" />

    
    <glyph glyph-name="xiangpian1-copy" unicode="&#59352;" d="M126.811174 658.838555L126.811174 658.838555l0-550.428218c0-27.52182 27.51875-55.04364 55.039547-55.04364l660.511405 0c33.027208 0 55.044664 22.017456 55.044664 55.04364L897.40679 658.838555c0 27.520797-27.52182 55.039547-55.044664 55.039547L181.850721 713.878103C148.82863 713.878103 126.811174 691.860646 126.811174 658.838555L126.811174 658.838555 126.811174 658.838555zM71.76651 658.838555L71.76651 658.838555c0 60.543911 49.539276 110.084211 110.084211 110.084211l660.511405 0c60.548004 0 110.087281-49.539276 110.087281-110.084211l0-550.428218c0-60.548004-49.539276-110.083188-110.087281-110.083188L181.850721-1.6728500000000395c-60.543911 0-110.084211 49.535183-110.084211 110.083188L71.76651 658.838555 71.76651 658.838555zM71.76651 658.838555M99.288331 135.93215799999996l214.663034 258.69897c22.017456 22.017456 49.539276 22.017456 66.052368 0l159.623487-203.65533 154.119123 154.1181c22.017456 22.018479 55.044664 22.018479 71.556733-5.503341l159.624511-203.6584-27.52182-93.571119L154.328901 25.84897000000001 99.288331 135.93215799999996 99.288331 135.93215799999996zM99.288331 135.93215799999996M567.150064 521.232524c0-10.81123 2.148943-21.61325 6.284123-31.596625 4.137227-9.987468 10.255575-19.144012 17.897625-26.787086 7.643074-7.643074 16.799618-13.761422 26.787086-17.898649 9.984399-4.134157 20.786419-6.284123 31.593556-6.284123 10.81123 0 21.61325 2.148943 31.596625 6.284123 9.984399 4.137227 19.144012 10.255575 26.787086 17.898649 7.643074 7.643074 13.761422 16.799618 17.894555 26.787086 4.13825 9.983375 6.287193 20.786419 6.287193 31.596625 0 10.806113-2.148943 21.609157-6.287193 31.592532-4.133134 9.988492-10.251481 19.144012-17.894555 26.787086-7.643074 7.643074-16.803711 13.761422-26.787086 17.898649-9.983375 4.134157-20.785396 6.284123-31.596625 6.284123-10.806113 0-21.609157-2.148943-31.593556-6.284123-9.987468-4.137227-19.144012-10.255575-26.787086-17.898649-7.643074-7.643074-13.761422-16.799618-17.897625-26.787086C569.300031 542.841681 567.150064 532.038638 567.150064 521.232524L567.150064 521.232524zM567.150064 521.232524"  horiz-adv-x="1024" />

    
    <glyph glyph-name="zuojiantoushixinxiao" unicode="&#58941;" d="M640 192V576L384 384z"  horiz-adv-x="1024" />

    


  </font>
</defs>
</svg>
