<?xml version="1.0" encoding="utf-8"?>
<!-- Generator: Adobe Illustrator 22.1.0, SVG Export Plug-In . SVG Version: 6.00 Build 0)  -->
<svg version="1.1" id="图层_1" xmlns="http://www.w3.org/2000/svg" xmlns:xlink="http://www.w3.org/1999/xlink" x="0px" y="0px"
	 viewBox="0 0 2880 1279" style="enable-background:new 0 0 2880 1279;" xml:space="preserve">
<style type="text/css">
	.st0{fill:#BFDBF2;}
	.st1{fill:#0D2135;}
	.st2{fill:none;stroke:#0D2135;stroke-width:1.01;stroke-miterlimit:10;}
	.st3{fill:#F4FBFE;}
	.st4{fill:#C1DDF4;}
	.st5{fill:#97ACAF;}
	.st6{fill:#858A67;}
	.st7{fill:none;stroke:#C1DDF4;stroke-width:1.01;stroke-miterlimit:10;}
	.st8{fill:#394450;}
	.st9{fill:#0D2136;}
	.st10{fill:none;stroke:#F4FBFE;stroke-width:1.01;stroke-miterlimit:10;}
	.st11{fill:#16727F;}
	.st12{fill:#124A53;}
	.st13{fill:#1D95A7;}
	.st14{fill:#CDEBF4;}
	.st15{fill:none;stroke:#CDEBF4;stroke-width:1.01;stroke-miterlimit:10;}
	.st16{fill:#955646;}
	.st17{fill:#6FA9DC;}
	.st18{fill:#905A24;}
	.st19{fill:#1B4481;}
	.st20{fill:#17717F;}
	.st21{fill:#3C4545;}
	.st22{fill:none;stroke:#7E9039;stroke-width:1.01;stroke-miterlimit:10;}
	.st23{fill:none;stroke:#17717F;stroke-width:1.01;stroke-miterlimit:10;}
	.st24{fill:#7E9039;}
	.st25{fill:#BF7461;}
	.st26{fill:#DE9885;}
	.st27{fill:#4A3E58;}
	.st28{fill:#95ABC1;}
	.st29{fill:#802018;}
	.st30{fill:#EDBFB4;}
	.st31{fill:#945544;}
	.st32{fill:#57697C;}
	.st33{fill:#74899F;}
	.st34{clip-path:url(#SVGID_2_);fill:#955646;}
	.st35{clip-path:url(#SVGID_4_);fill:#955646;}
	.st36{fill:#F9CCDA;}
	.st37{clip-path:url(#SVGID_6_);fill:#FEFEFE;}
	.st38{clip-path:url(#SVGID_8_);fill:#C1DDF3;}
	.st39{fill:#C1DDF3;}
	.st40{clip-path:url(#SVGID_10_);fill:#0C2034;}
	.st41{clip-path:url(#SVGID_12_);fill:#818D38;}
	.st42{clip-path:url(#SVGID_14_);fill:#0C2034;}
	.st43{clip-path:url(#SVGID_16_);fill:#483E56;}
	.st44{clip-path:url(#SVGID_18_);fill:#818D38;}
	.st45{clip-path:url(#SVGID_20_);fill:#EEE8E2;}
	.st46{clip-path:url(#SVGID_22_);fill:#0C2034;}
	.st47{clip-path:url(#SVGID_24_);fill:#8F82A8;}
	.st48{clip-path:url(#SVGID_26_);fill:#955646;}
	.st49{clip-path:url(#SVGID_28_);fill:#0C2034;}
	.st50{clip-path:url(#SVGID_30_);fill:#955646;}
	.st51{clip-path:url(#SVGID_32_);fill:#955646;}
	.st52{clip-path:url(#SVGID_34_);fill:#0C2034;}
	.st53{clip-path:url(#SVGID_36_);fill:#955646;}
	.st54{clip-path:url(#SVGID_38_);fill:#2868B0;}
	.st55{clip-path:url(#SVGID_40_);fill:#0C2034;}
	.st56{fill:#0C2034;}
	.st57{clip-path:url(#SVGID_42_);fill:#0C2034;}
	.st58{clip-path:url(#SVGID_44_);fill:#0C2034;}
	.st59{clip-path:url(#SVGID_46_);fill:#0C2034;}
	.st60{clip-path:url(#SVGID_48_);fill:#2868B0;}
	.st61{fill:#BE3626;}
	.st62{fill:#BBCE47;}
	.st63{fill:#2A67B2;}
	.st64{fill:#5C6A6C;}
	.st65{fill:#6F665A;}
	.st66{fill:#955647;}
	.st67{fill:#EFB7A8;}
	.st68{fill:#E7592F;}
	.st69{fill:#221D26;}
	.st70{fill:#5B6A6B;}
	.st71{fill:#E0EEFA;}
	.st72{fill:#725F87;}
	.st73{fill:#57697B;}
	.st74{opacity:0.51;fill:#F4FBFE;enable-background:new    ;}
	.st75{opacity:0.51;fill:none;stroke:#F4FBFE;stroke-width:1.01;stroke-miterlimit:10;enable-background:new    ;}
	.st76{fill:#2767B0;}
	.st77{fill:#2D1C17;}
	.st78{fill:#61382D;}
	.st79{fill:#F3BA64;}
	.st80{fill:#FFFEFD;}
	.st81{fill:#1D2124;}
	.st82{fill:#B24226;}
	.st83{fill:none;stroke:#4684C4;stroke-width:1.01;stroke-miterlimit:10;}
	.st84{fill:#E7EDF4;}
	.st85{fill:#4684C4;}
	.st86{fill:#F4FBFE;stroke:#95ABC1;stroke-width:4.02;stroke-miterlimit:10;}
	.st87{fill:#FCD59D;}
	.st88{fill:none;stroke:#394450;stroke-width:1.01;stroke-miterlimit:10;}
	.st89{fill:#20211B;}
	.st90{fill:#97ADB0;}
	.st91{fill:#1B4580;}
	.st92{fill:#DF9885;}
	.st93{fill:#E8592F;}
	.st94{fill:#BF7561;}
	.st95{fill:#BC792A;}
</style>
<rect y="3" class="st0" width="2880" height="1276"/>
<g>
	<g>
		<path class="st1" d="M1155.7,948.6l-7.5,1.3L1129,840.8l7.5-1.3L1155.7,948.6z"/>
		<circle class="st1" cx="1131.5" cy="898.6" r="7.8"/>
		<path class="st1" d="M1129,904.5V955c0,0,0.9,7-5.3,7.8h-7v4h28.5V963h-11.5v-58.5H1129z"/>
		<path class="st1" d="M1186.5,964l-33.9-3c0,0-1.2,5.2,3.1,5.8h29.1C1184.9,966.8,1187,965.5,1186.5,964z"/>
	</g>
	<g>
		<path class="st2" d="M1101.1,1079.2c0,0,16.6-9.8,12.6-34.6c0,0-1-17-11.9-35.4c0,0-11.5-16.4-14.2-18.8c0,0-12.6-14.9-4.2-25.1
			c0,0,4.9-9.1,18-3.8c0,0,7.1,5.5,16.1,2.9c0,0,8.8-6.1,17.2-4.6c0,0,12.4,4.2,19.2,4.1"/>
		<path class="st2" d="M1126.2,904.5c-7.1,10.6-21.3,13.6-31.5,21.4c-15.2,11.7-19.2,35.7-8.5,51.7c2.8,4.2,6.4,7.8,8.9,12.1
			s3.9,9.8,1.8,14.3c-1.8,3.9-5.7,6.2-8.7,9.3c-5.4,5.7-7.5,14-6.5,21.8c1,7.8,4.8,15,9.9,20.9"/>
		<path class="st2" d="M1128,905.6c0,0-2.9-2.4-14.2,0.8c0,0-17.5,5.7-15.9,23c0,0,1,10.1,4,15.5c0,0,5.6,20.8-3,29.5
			c0,0-8.8,8.9-12.2,11.4c0,0-12.5,12.2,1.9,21c0,0,5.2,2.9,8.2,3.6c0,0,11.6,2.2,16.9,12.6c0,0,9,14.9,0,28.8
			c0,0-8.5,13.2-19.5,19.2"/>
	</g>
	<g>
		<path class="st2" d="M1992.5,976v132 M2034.2,973.5l23.7,134.4 M1951.6,973.5l-23.7,134.4"/>
		<path class="st1" d="M1934,964h118c3.3,0,6,2.7,6,6l0,0c0,3.3-2.7,6-6,6h-118c-3.3,0-6-2.7-6-6l0,0
			C1928,966.7,1930.7,964,1934,964z"/>
		<g>
			<g>
				<path class="st3" d="M1986.6,930h15v34h-15V930z"/>
				<path class="st4" d="M1986.6,942h15v17h-15V942z"/>
			</g>
			<g>
				<path class="st3" d="M1961.6,930h15v34h-15V930z"/>
				<path class="st4" d="M1961.6,948h15v11h-15V948z"/>
			</g>
		</g>
	</g>
	<g id="workplace_lower-3">
		<path class="st3" d="M194.9,812h28v28h-28V812z"/>
		<path class="st5" d="M205.9,822h7v10h-7V822z"/>
		<path class="st1" d="M205.9,822h7v3h-7V822z"/>
	</g>
	<line class="st2" x1="779.9" y1="997" x2="785.8" y2="1110.9"/>
	<line class="st2" x1="748.3" y1="997" x2="742.5" y2="1110.9"/>
	<path class="st6" d="M745.5,988h37.8c3.1,0,5.6,2.5,5.6,5.6v6.8c0,3.1-2.5,5.6-5.6,5.6h-37.8c-3.1,0-5.6-2.5-5.6-5.6v-6.8
		C739.9,990.5,742.4,988,745.5,988z"/>
	<path class="st2" d="M783.9,1080.5h-40"/>
	<g>
		<line class="st7" x1="1308.9" y1="897.5" x2="1393.9" y2="897.5"/>
		<line class="st7" x1="1308.9" y1="889.5" x2="1393.9" y2="889.5"/>
		<line class="st7" x1="1308.9" y1="880.5" x2="1393.9" y2="880.5"/>
		<line class="st7" x1="1308.9" y1="872.5" x2="1393.9" y2="872.5"/>
		<line class="st7" x1="1308.9" y1="864.5" x2="1393.9" y2="864.5"/>
	</g>
	<g>
		<g>
			<path class="st1" d="M540.9,926h37v36h-37V926z"/>
			<path class="st8" d="M527.9,959h70v8h-70V959z"/>
			<g>
				<polygon class="st8" points="631.7,758.3 514.9,758.3 514.9,927 631.7,927 				"/>
				<g>
					<rect x="521.1" y="764.5" class="st9" width="104.3" height="157.5"/>
					<g>
						<line class="st10" x1="529.2" y1="774.8" x2="538.2" y2="774.8"/>
						<line class="st10" x1="529.2" y1="778.8" x2="557.2" y2="778.8"/>
						<line class="st10" x1="529.2" y1="783.8" x2="549.2" y2="783.8"/>
						<line class="st10" x1="543.2" y1="788.8" x2="600.1" y2="788.8"/>
						<line class="st10" x1="529.2" y1="793.8" x2="579.1" y2="793.8"/>
						<line class="st10" x1="545.2" y1="802.7" x2="570.2" y2="802.7"/>
						<line class="st10" x1="575.2" y1="802.7" x2="587.1" y2="802.7"/>
						<line class="st10" x1="529.2" y1="807.7" x2="538.2" y2="807.7"/>
						<line class="st10" x1="543.2" y1="807.7" x2="552.2" y2="807.7"/>
						<line class="st10" x1="557.2" y1="807.7" x2="566.2" y2="807.7"/>
						<line class="st10" x1="571.2" y1="807.7" x2="580.1" y2="807.7"/>
						<line class="st10" x1="585.1" y1="807.7" x2="594.1" y2="807.7"/>
						<line class="st10" x1="534.2" y1="812.7" x2="560.2" y2="812.7"/>
						<line class="st10" x1="538.2" y1="816.7" x2="580.1" y2="816.7"/>
						<line class="st10" x1="529.2" y1="821.7" x2="534.2" y2="821.7"/>
						<line class="st10" x1="538.2" y1="826.7" x2="584.1" y2="826.7"/>
						<line class="st10" x1="529.2" y1="830.7" x2="590.1" y2="830.7"/>
						<line class="st10" x1="538.2" y1="835.7" x2="549.2" y2="835.7"/>
						<line class="st10" x1="538.2" y1="840.7" x2="564.2" y2="840.7"/>
						<line class="st10" x1="529.2" y1="845.7" x2="564.2" y2="845.7"/>
						<line class="st10" x1="538.2" y1="849.7" x2="548.2" y2="849.7"/>
						<line class="st10" x1="538.2" y1="854.6" x2="543.2" y2="854.6"/>
						<line class="st10" x1="538.2" y1="859.6" x2="564.2" y2="859.6"/>
						<line class="st10" x1="534.2" y1="863.6" x2="550.2" y2="863.6"/>
						<line class="st10" x1="534.2" y1="868.6" x2="575.2" y2="868.6"/>
						<line class="st10" x1="537.2" y1="873.6" x2="542.2" y2="873.6"/>
						<line class="st10" x1="537.2" y1="878.6" x2="559.2" y2="878.6"/>
						<line class="st10" x1="544.2" y1="882.6" x2="565.2" y2="882.6"/>
						<line class="st10" x1="538.2" y1="887.6" x2="542.2" y2="887.6"/>
						<line class="st10" x1="538.2" y1="892.6" x2="571.2" y2="892.6"/>
						<line class="st10" x1="534.2" y1="897.6" x2="578.2" y2="897.6"/>
						<line class="st10" x1="529.2" y1="901.6" x2="543.2" y2="901.6"/>
						<line class="st10" x1="538.2" y1="906.5" x2="571.2" y2="906.5"/>
						<line class="st10" x1="538.2" y1="911.5" x2="565.2" y2="911.5"/>
						<line class="st10" x1="565.2" y1="812.7" x2="594.1" y2="812.7"/>
						<line class="st10" x1="538.2" y1="821.7" x2="566.2" y2="821.7"/>
						<line class="st10" x1="571.2" y1="821.7" x2="611.1" y2="821.7"/>
						<line class="st10" x1="545.2" y1="797.8" x2="600.1" y2="797.8"/>
						<line class="st10" x1="584.1" y1="793.8" x2="600.1" y2="793.8"/>
						<line class="st10" x1="529.2" y1="788.8" x2="538.2" y2="788.8"/>
						<line class="st10" x1="554.2" y1="783.8" x2="560.2" y2="783.8"/>
						<line class="st10" x1="564.2" y1="783.8" x2="571.2" y2="783.8"/>
						<line class="st10" x1="574.2" y1="783.8" x2="581.1" y2="783.8"/>
						<line class="st10" x1="584.1" y1="783.8" x2="591.1" y2="783.8"/>
						<line class="st10" x1="594.1" y1="783.8" x2="611.1" y2="783.8"/>
						<line class="st10" x1="562.2" y1="778.8" x2="611.1" y2="778.8"/>
						<line class="st10" x1="543.2" y1="774.8" x2="552.2" y2="774.8"/>
						<line class="st10" x1="558.2" y1="774.8" x2="567.2" y2="774.8"/>
						<line class="st10" x1="572.2" y1="774.8" x2="595.1" y2="774.8"/>
						<line class="st10" x1="602.1" y1="774.8" x2="611.1" y2="774.8"/>
						<line class="st10" x1="551.2" y1="849.7" x2="575.2" y2="849.7"/>
						<line class="st10" x1="548.2" y1="854.6" x2="564.2" y2="854.6"/>
						<line class="st10" x1="554.2" y1="864.6" x2="585.1" y2="864.6"/>
						<line class="st10" x1="554.2" y1="835.7" x2="580.1" y2="835.7"/>
						<line class="st10" x1="546.2" y1="873.6" x2="563.2" y2="873.6"/>
						<line class="st10" x1="570.2" y1="873.6" x2="584.1" y2="873.6"/>
						<line class="st10" x1="563.2" y1="878.6" x2="578.2" y2="878.6"/>
						<line class="st10" x1="571.2" y1="882.6" x2="585.1" y2="882.6"/>
						<line class="st10" x1="547.2" y1="901.6" x2="560.2" y2="901.6"/>
					</g>
				</g>
			</g>
		</g>
		<g>
			<path class="st3" d="M205.9,1056h49v23h-49V1056z"/>
			<g>
				<g>
					<g>
						<circle class="st1" cx="242.6" cy="1067.8" r="4.1"/>
						<path class="st2" d="M242.5,1068.6v11.4c0,7.3,3.4,12.6,9.2,15.7s13.1,2.8,19.3,0.5c4.7-1.8,8.9-4.6,13.3-6.9
							s9.4-4.1,14.3-3.4"/>
					</g>
					<g>
						<circle class="st1" cx="220.2" cy="1067.8" r="4.1"/>
						<path class="st2" d="M220.2,1067.8v24.7c0,0,0,7.5,6,9.5c0,0,6.6,3.8,13.4-1c0,0,12.4-13,21.4-13.9c0,0,8-1.5,11.9-1.5"/>
					</g>
				</g>
				<g>
					<path class="st2" d="M295.7,1025.1c0,0,5.2-10.1,13.2-16.9c0,0,26.5-18.8,32.8-31.5c0,0,9.5-17.2,10.5-29
						c0,0,2.5-17.2,1.8-23.5"/>
					<path class="st2" d="M317.7,1025.1c0,0,1.4-27.4,7.2-41.1c0,0,10.8-25.8,16.8-35c0,0,8.8-18,8.8-27"/>
					<path class="st2" d="M311.9,1025.1c0,0,5-20.9,29.8-31.4c0,0,15-6,33.5-3.8c0,0,34.2,4.7,49.8-0.5c0,0,19-4.1,24.2-15.9"/>
				</g>
				<g>
					<path class="st11" d="M339.4,1020.1h-59.5c0,0-10.8-1.1-10.8,10v81h70.8L339.4,1020.1z"/>
					<rect x="276.7" y="1068.1" class="st12" width="27" height="37"/>
					<g>
						<path class="st13" d="M335.7,1020.1h43v91h-43V1020.1z"/>
						<path class="st12" d="M378.7,1076.1h-43v5.8c21.6,5.5,43,0,43,0V1076.1z"/>
						<circle class="st14" cx="345.3" cy="1092.6" r="3.3"/>
						<circle class="st1" cx="362.4" cy="1091.4" r="1.3"/>
						<circle class="st1" cx="367.2" cy="1091.4" r="1.3"/>
						<circle class="st1" cx="371.9" cy="1091.4" r="1.3"/>
						<g>
							<path class="st9" d="M341.7,1030.1v30.1c0,0,0,4.2,3.6,4.2h24.3c0,0,3.1,0,3.1-3.2v-31.1H341.7z"/>
							<rect x="341.7" y="1025.1" class="st12" width="31" height="10"/>
							<line class="st15" x1="372.7" y1="1043.6" x2="341.7" y2="1043.6"/>
							<line class="st15" x1="372.7" y1="1053.6" x2="341.7" y2="1053.6"/>
						</g>
					</g>
				</g>
			</g>
		</g>
		<g>
			<polygon class="st3" points="592.4,1110 596.9,1110 596.9,979 588.1,979 			"/>
			<path class="st16" d="M167.9,967h440c3.3,0,6,2.7,6,6l0,0c0,3.3-2.7,6-6,6h-440c-3.3,0-6-2.7-6-6l0,0
				C161.9,969.7,164.6,967,167.9,967z"/>
			<polygon class="st3" points="183.4,1110 178.9,1110 178.9,979 187.7,979 			"/>
		</g>
		<g>
			<polygon class="st1" points="250.2,919 183.7,919 196.7,967 263.3,967 			"/>
			<path class="st1" d="M305.9,963h-109v4h109V963z"/>
			<path class="st17" d="M200.1,963.1L188.9,922h57.8l11.2,41.1L200.1,963.1L200.1,963.1z"/>
			<g>
				<path class="st18" d="M252.3,958h-40.2l-5.9-22l-0.8-3h40.2l0.8,3L252.3,958L252.3,958z"/>
				<path class="st3" d="M243.7,952h-40.2l-5.9-22l-0.8-3H237l0.8,3L243.7,952z"/>
				<path class="st19" d="M237.9,931h-40.2l-0.8-3h40.2L237.9,931z"/>
				<path class="st1" d="M248.6,946h-26l-1.2-5h26L248.6,946z"/>
			</g>
		</g>
		<g>
			<path class="st1" d="M379.3,929.3l-3.8,31.2l-10.5-1.2v3.2c0,0-1,4.8,2.5,4.8h43.2l-3.2-38H379.3z"/>
			<g>
				<polygon class="st1" points="479.9,812 310.9,812 310.9,929 479.9,929 				"/>
				<g>
					<path class="st20" d="M302.9,812h8v117h-8V812z"/>
					<g>
						<circle class="st1" cx="306.5" cy="923.3" r="1.9"/>
						<circle class="st1" cx="306.5" cy="917.3" r="1.9"/>
						<circle class="st1" cx="306.5" cy="911.2" r="1.9"/>
					</g>
				</g>
				<polyline class="st21" points="475.9,815 475.9,925 313.9,925 313.9,815 475.9,815 				"/>
				<g>
					<path class="st1" d="M350.9,825h102v89h-102V825z"/>
					<g>
						<g>
							<path class="st22" d="M359.9,833.5h40"/>
							<path class="st10" d="M405.9,833.5h-6"/>
							<path class="st22" d="M367.9,838.5h46"/>
							<path class="st10" d="M359.9,841.5h39"/>
							<path class="st22" d="M359.9,845.5h28"/>
							<path class="st23" d="M359.9,849.5h20"/>
							<path class="st10" d="M359.9,853.5h34"/>
							<path class="st22" d="M403.9,853.5h-10"/>
							<line class="st23" x1="359.9" y1="857.5" x2="370.9" y2="857.5"/>
							<line class="st23" x1="359.9" y1="861.5" x2="370.9" y2="861.5"/>
							<line class="st23" x1="359.9" y1="865.5" x2="370.9" y2="865.5"/>
							<line class="st22" x1="359.9" y1="870.5" x2="385.9" y2="870.5"/>
							<line class="st22" x1="359.9" y1="873.5" x2="373.9" y2="873.5"/>
							<line class="st10" x1="368.9" y1="877.5" x2="403.9" y2="877.5"/>
							<line class="st10" x1="368.9" y1="881.5" x2="394.9" y2="881.5"/>
							<line class="st22" x1="368.9" y1="885.5" x2="381.9" y2="885.5"/>
							<line class="st22" x1="359.9" y1="889.5" x2="407.9" y2="889.5"/>
							<line class="st10" x1="413.9" y1="889.5" x2="407.9" y2="889.5"/>
							<line class="st10" x1="368.9" y1="893.5" x2="385.9" y2="893.5"/>
							<line class="st23" x1="376.9" y1="897.5" x2="393.9" y2="897.5"/>
							<line class="st23" x1="376.9" y1="901.5" x2="388.9" y2="901.5"/>
							<line class="st10" x1="368.9" y1="904.5" x2="385.9" y2="904.5"/>
						</g>
						<g>
							<path class="st20" d="M324.9,825h26v89h-26V825z"/>
							<g>
								<g>
									<line class="st10" x1="344.9" y1="833.5" x2="329.9" y2="833.5"/>
									<line class="st10" x1="344.9" y1="837.5" x2="329.9" y2="837.5"/>
									<line class="st10" x1="344.9" y1="841.5" x2="329.9" y2="841.5"/>
									<line class="st10" x1="344.9" y1="845.5" x2="329.9" y2="845.5"/>
									<line class="st10" x1="344.9" y1="849.5" x2="329.9" y2="849.5"/>
									<line class="st10" x1="344.9" y1="853.5" x2="329.9" y2="853.5"/>
									<line class="st10" x1="344.9" y1="857.5" x2="329.9" y2="857.5"/>
									<line class="st10" x1="344.9" y1="861.5" x2="329.9" y2="861.5"/>
									<line class="st10" x1="344.9" y1="865.5" x2="329.9" y2="865.5"/>
									<line class="st10" x1="344.9" y1="869.5" x2="329.9" y2="869.5"/>
									<line class="st10" x1="344.9" y1="873.5" x2="329.9" y2="873.5"/>
								</g>
								<path class="st24" d="M329.9,879h3v3h-3V879z"/>
								<path class="st3" d="M329.9,885h3v3h-3V885z"/>
								<path class="st1" d="M329.9,891h3v3h-3V891z"/>
							</g>
						</g>
					</g>
				</g>
			</g>
		</g>
	</g>
	<g>
		<g>
			<g>
				<g>
					<path class="st25" d="M677.6,1089.3l-31.5,21.6c-1.7-6.3,2.1-8.1,5.4-11.1c2.7-2.4,5-5.6,3.8-12.6c-0.5-10-22.4-24.5-38.4-46.5
						l18.4-12.7l33.9,49.6l0.6,0.9L677.6,1089.3z"/>
					<path class="st1" d="M677,1089.3l-31.5,21.6c-1.7-6.3,2.1-8.1,5.4-11.1c3.5,3.3,13.6-6.7,15.3-14.8c0.5-2.6,0.3-4,3.1-6.4
						C677,1082.1,677,1089.3,677,1089.3L677,1089.3z"/>
				</g>
				<g>
					<path class="st26" d="M604.9,1033.7c0,0-1.5,15.4,2.3,31.6c0,0,7,25.6,1.7,33.5c0,0-3.7,6.9-15,5.9l-3.3,5.6h35.1v-76.7
						L604.9,1033.7L604.9,1033.7z"/>
					<path class="st1" d="M625.5,1110.3h-38.2c2.2-6.2,6.3-5.5,10.7-6.1c1,4.7,15,2.1,21.1-3.6c1.9-1.8,2.6-3.2,6.1-3.5
						C629.5,1104.4,625.5,1110.3,625.5,1110.3L625.5,1110.3z"/>
				</g>
			</g>
			<g>
				<path class="st27" d="M580.5,1038.7h62c0,0,6.1-21.8,5.6-33.9c0,0,0.1-37.3-4.5-49.7l-3.8-15.9l-56.8-1.3c0,0-4.3,25.5-3.7,45.7
					L580.5,1038.7z"/>
				<path class="st26" d="M587.1,934.7h-53.3v-12.4c0,0,6.6-1.1,11.4,1.4l6.6,2.5c0,0,1.1,0.5,2.8-0.1l25.8-8.4l-14.1-17.6
					c0,0-3.9-3.6-6.5-3.9c0,0-5.3-0.9-6.6-3.3c0,0,0.1-1.6-0.8-2c0,0-1.3-2.7-0.1-3.1c0,0-2-1.5-0.7-2.8l-3.2-1.5c0,0-2-1.7,0.5-1.6
					l7.4,1.7c0,0,2.3,0.5,1.6-1.7l-2.3-2.9c0,0,0-2.3,1.7-0.8l8.4,10.1c0,0,1.6,2.7,4.7,4.5l16.6,9v32.9L587.1,934.7L587.1,934.7z"
					/>
				<path class="st28" d="M643.5,955.1c-4.5-20.2-9.9-34.9-7.3-44.9c5.3-20.9-8.3-36.4-8.3-36.4h-30.6c-2.1,3.5-5.3,6.6-7.9,10.9
					c-3.2,5.1-5.5,11.9-4.3,23c1.6,13.4-1,22.3-3.2,35.3h41.7C640.1,943,643.3,954.4,643.5,955.1L643.5,955.1z"/>
			</g>
			<g>
				<g>
					<path class="st26" d="M603.1,829.3c-0.5,0.4-0.8,0.8-1,1.1C602.6,829.7,603.1,829.3,603.1,829.3z"/>
					<path class="st26" d="M615.5,847.5c0.5-0.7,0.8-1.6,0.8-2.6c0-2.5-2-4.5-4.5-4.5c-0.8,0-1.6,0.2-2.3,0.7l0,0c0,0,2.3-6.4,4-8.2
						c0,0-13.5,0.8-11.5-2.6c-1.1,1.3-2.9,3.7-3.7,6.2c0,0-0.9,2.7-2.4,3.7c0,0-3.3,2.7-1.7,3.9c0,0,2,1.5,0.4,5.1
						c0,0-2,4.3,0.4,6.3c0,0,1.6,1.2,3.4,3.7c0,0,2.3,3.3,1.5,6.9c0,0-0.7,4.8-2.7,7.7h13.4c0,0-2.8-3.6-3.3-8.8c0,0,0.3-9,4.5-13.5
						c0,0,1.5-1.6,3-3.3c0.2-0.2,0.4-0.4,0.5-0.6C615.4,847.6,615.4,847.6,615.5,847.5L615.5,847.5z"/>
				</g>
				<path class="st29" d="M599.2,828.2c0,0,0.9,6.2,14.4,4.8c0,0-4,5.5-4,8.2c0,0,2.2-1.1,4,0c0,0,4.2,1.4,1.9,6.4c0,0-7.4,5-8,15.6
					c0,0-0.3,6.2,3.1,10.7c0,0,5.1,9.4,16.8,9c0,0,10.2-0.5,15.2-9c0,0,6-8,0-19.3c0,0-6-7.4-7.3-13.8c0,0-1.9-12.8-11.2-15.6
					c0,0-5.7-3.7-16.5,0C607.6,825.2,602.7,830.7,599.2,828.2z"/>
			</g>
		</g>
		<g>
			<g>
				<g>
					<path class="st1" d="M480.4,901.4v5l23.9-1.7c0,0,3.4-3.5-1.1-5.2L480.4,901.4z"/>
					<path class="st30" d="M509.3,884.5L509.3,884.5c2.8-3.3,4.4-7.6,4.4-12.3c0-10.7-8.7-19.4-19.4-19.4c-5.1,0-9.8,2-13.2,5.2l0,0
						l-0.1,0.1c-0.7,0.6-1.3,1.3-1.8,2l-5.3,5.8c0,0-1.2,3.1-1.6,7.8l-2.4,4.5c0,0-1.2,1.3,0,2.5c0,0,2.9,2,1.7,4.5
						c0,0-0.3,2.5,0,4.3c0,0,0,2.3,3.4,4.1c0,0,5.5,1.2,5.5,4.4l0.1,3.1l20.1-1.5v-4.1c0,0,0-2,2.1-3.5L509.3,884.5
						C509.2,884.5,509.3,884.5,509.3,884.5L509.3,884.5z"/>
					<path class="st31" d="M477.2,841c0,0-7.1,5.7-5.1,9.6c0,0,0.6,3.7-0.3,6.2c0,0-3,8.5,2.7,9.8c0,0,8.2,1.4,8.4,8.3
						c0,0,2.7-4.1,6.6-0.9c0,0,3.5,3,0.9,6.2c0,0-1.6,6,1,7.1c0,0,1.3,2.1,5,2c0,0,2.1-0.5,4.3,1.8c0,0,1.8,3.2,5.1,1.4l2.4-2
						c0,0,1.6-2.5,5.1-1.8c0,0,3,0.9,5.3-3c0,0,0.2-5.5,2.5-6.6c0,0,2.3-1.6,2.1-5.1c0,0-1.4-4.4,0.9-7c0,0,2.1-4.5,0-7.5
						c0,0-4.1-3.5-3.9-8c0,0-0.2-5.9-6.2-7.8c0,0-4.8-1.2-6-5c0,0-1.4-2.8-7.1-2.5c0,0-4.4,2.5-9-0.9c0,0-5-3.2-9.8,1.2L477.2,841z"
						/>
				</g>
				<g>
					<polygon class="st3" points="475.7,1080 478.5,1084.4 492.3,1075.3 488.6,1070.4 					"/>
					<polygon class="st3" points="502.2,1076.1 505.1,1080.5 518.1,1071.7 514.5,1066.8 					"/>
					<polygon class="st32" points="516.7,1069.2 495.9,1085.4 460.1,1031.5 482.4,1017.8 					"/>
					<path class="st33" d="M454.3,994.6c0,0-18.8,5-21.5,19.7c0,0-3.4,9,0,18.8l33.3,55.7l23.5-17.8l-24.7-37.4c0,0-4.1-7.1,9.8-8.5
						l32.1-4.6c0,0,11.2-2.8,17.9-8.3c0,0,5.3-8.2,7.3-13.3l-62.2-7.6C469.7,991.3,457.4,993.5,454.3,994.6z"/>
				</g>
				<g>
					<path class="st30" d="M434.5,963.6l-17.7-7.9c0,0-0.2,2.2-2.7,2c0,0-1.3,0-2.7,0c0,0-2.7,0.7-3.3-2v-3.1l-5.8,5.9
						c0,0-2.7,0.8-1.5-1.5l7-10c0,0,1.5-1.7,6.5-0.9l24.7,4.3L434.5,963.6z"/>
					<path class="st3" d="M446.8,951.7l15.1-34.1c0,0,4.9-11.1,16.7-11.1l35-2.5c0,0,17.2-1.1,22.3,19.7v76.7l-55.1,3.6
						c0,0-20-2.7-20.4-20.1v-12.4c0,0-6.7,3.6-13.6,0.7l-14-6.9l4.5-15.1L446.8,951.7z"/>
				</g>
			</g>
			<g>
				<path class="st1" d="M495.1,1102.3l30.8-20.9l-8.1-11.3c-7.6,5-4.1,10-13.7,9.3C506.6,1094.5,492.3,1091.1,495.1,1102.3z"/>
				<path class="st1" d="M467.1,1104.1l30.8-20.9l-8.1-11.3c-7.6,5-4.1,10-13.7,9.3C478.6,1096.3,464.2,1093,467.1,1104.1z"/>
				<path class="st2" d="M511.4,1017.3v-52"/>
				<path class="st2" d="M501.3,1094.8v-52"/>
				<ellipse class="st1" cx="501.3" cy="1104.2" rx="5.4" ry="5.4"/>
				<ellipse class="st1" cx="523.4" cy="1104.2" rx="5.4" ry="5.4"/>
				<ellipse class="st1" cx="479.3" cy="1104.2" rx="5.4" ry="5.4"/>
				<path class="st1" d="M538.3,1004.8h-52.6c-9.6,0-17.4-7.8-17.4-17.4v-46.3c0-9.6,7.8-17.4,17.4-17.4h52.6
					c9.6,0,17.4,7.8,17.4,17.4v46.3C555.7,997,547.9,1004.8,538.3,1004.8z"/>
				<path class="st1" d="M532.5,1044h-62.1c-6.9,0-12.6-5.7-12.6-12.6v-1.6c0-6.9,5.7-12.6,12.6-12.6h62.1c6.9,0,12.6,5.7,12.6,12.6
					v1.6C545.1,1038.4,539.4,1044,532.5,1044z"/>
				<path class="st2" d="M479.3,1099.7c0,0,0.1-6.6,6.6-6.6h30.5c0,0,6.3,0,6.3,7"/>
			</g>
		</g>
	</g>
	<g>
		<g>
			<g>
				<g>
					<g>
						<g>
							<g>
								<g>
									<defs>
										<path id="SVGID_1_" d="M326.4,868.4l-1.8,0.9c0,0.8-0.4,5-0.5,5.7c-0.4,3.3-2.1,4.5-6,7.1c-2.2,1.5-3.8,7.1-2.6,12.8
											c0.7,3.2,2.4,6.5,5.2,9c0.5,0.4,0.9,0.8,1.4,1.2l-35.3-8.5c2-2.5,3.8-4.6,5.1-6.5c3.2-4.7,3.8-8,0.8-13
											c-1.2-1.9-2.6-3.9-4.3-6.4c0-0.1-0.1-0.1-0.1-0.2l11.5-4.1l24.7-8.9v0.1c0,0.4,0,0.8,0.1,1.2c0.4,2.8,1.5,5,2.5,6.5
											C328,866.4,327.5,868,326.4,868.4"/>
									</defs>
									<clipPath id="SVGID_2_">
										<use xlink:href="#SVGID_1_"  style="overflow:visible;"/>
									</clipPath>
									<path class="st34" d="M283.4,853.8h47.7v54.8h-47.7V853.8z"/>
								</g>
							</g>
						</g>
					</g>
				</g>
			</g>
			<g>
				<g>
					<g>
						<g>
							<g>
								<g>
									<defs>
										<path id="SVGID_3_" d="M324.6,859.7c0,10.9-8.9,19.7-19.7,19.7c-3.1,0-6.1-0.7-8.7-2c-3.1-1.5-5.8-3.8-7.7-6.7
											c0-0.1-0.1-0.1-0.1-0.2c-2-3.1-3.2-6.9-3.2-10.8c0-10.9,8.9-19.7,19.7-19.7c8,0,14.9,4.8,18.1,11.7
											c0.8,1.8,1.3,3.8,1.5,5.8v0.1c0,0.4,0,0.8,0.1,1.2V859.7"/>
									</defs>
									<clipPath id="SVGID_4_">
										<use xlink:href="#SVGID_3_"  style="overflow:visible;"/>
									</clipPath>
									<path class="st35" d="M281.6,836.3h46.7V883h-46.7V836.3z"/>
								</g>
							</g>
						</g>
					</g>
				</g>
			</g>
			<path class="st36" d="M322.2,864.1l0.7-7.3l1.2,0.1l-0.7,7.3L322.2,864.1z"/>
			<g>
				<g>
					<g>
						<g>
							<g>
								<g>
									<g>
										<defs>
											<path id="SVGID_5_" d="M389.5,896l-15.7-4.3c-0.8-0.2-1.4-1.1-1.2-2l8-30c0.2-0.8,1.1-1.4,2-1.2l15.7,4.3
												c0.8,0.2,1.4,1.1,1.2,2l-8,30C391.3,895.7,390.4,896.2,389.5,896"/>
										</defs>
										<clipPath id="SVGID_6_">
											<use xlink:href="#SVGID_5_"  style="overflow:visible;"/>
										</clipPath>
										<path class="st37" d="M369.1,855h34.2v44.7h-34.2V855z"/>
									</g>
								</g>
							</g>
						</g>
					</g>
				</g>
				<g>
					<g>
						<g>
							<g>
								<g>
									<g>
										<defs>
											
												<rect id="SVGID_7_" x="373.8" y="867.3" transform="matrix(0.259 -0.9659 0.9659 0.259 -560.8208 1023.0935)" width="25.1" height="19.5"/>
										</defs>
										<clipPath id="SVGID_8_">
											<use xlink:href="#SVGID_7_"  style="overflow:visible;"/>
										</clipPath>
										<path class="st38" d="M369.9,859.1h32.5v36.4h-32.5V859.1z"/>
									</g>
								</g>
							</g>
						</g>
					</g>
				</g>
				<path class="st39" d="M391.7,864.3h-0.1l-3.5-0.9c-0.4-0.1-0.5-0.4-0.5-0.7c0.1-0.4,0.4-0.5,0.7-0.5l3.5,0.9
					c0.4,0.1,0.5,0.4,0.5,0.7C392.1,864.2,391.9,864.3,391.7,864.3z"/>
			</g>
			<g>
				<g>
					<g>
						<g>
							<g>
								<g>
									<defs>
										<polygon id="SVGID_9_" points="320.9,904 327.6,898.7 339.2,908.7 324.5,926.8 										"/>
									</defs>
									<clipPath id="SVGID_10_">
										<use xlink:href="#SVGID_9_"  style="overflow:visible;"/>
									</clipPath>
									<path class="st40" d="M317.3,895.1h25.5v35.2h-25.5V895.1z"/>
								</g>
							</g>
						</g>
					</g>
				</g>
			</g>
			<g>
				<g>
					<g>
						<g>
							<g>
								<g>
									<defs>
										<polygon id="SVGID_11_" points="294.9,1090.2 298.1,1074.8 313,1074.8 309.5,1090.2 										"/>
									</defs>
									<clipPath id="SVGID_12_">
										<use xlink:href="#SVGID_11_"  style="overflow:visible;"/>
									</clipPath>
									<path class="st41" d="M291.2,1071.2h25.4v22.7h-25.4V1071.2z"/>
								</g>
							</g>
						</g>
					</g>
				</g>
			</g>
			<g>
				<g>
					<g>
						<g>
							<g>
								<g>
									<defs>
										<path id="SVGID_13_" d="M330.7,1111.2c-3-14.7-22.6-1.1-21.2-18.8c0-0.7,0.1-1.4,0.1-2.1h-14.7l-4.5,20.9H330.7
											L330.7,1111.2z"/>
									</defs>
									<clipPath id="SVGID_14_">
										<use xlink:href="#SVGID_13_"  style="overflow:visible;"/>
									</clipPath>
									<path class="st42" d="M286.7,1086.7h47.5v28.1h-47.5V1086.7z"/>
								</g>
							</g>
						</g>
					</g>
				</g>
			</g>
			<g>
				<g>
					<g>
						<g>
							<g>
								<g>
									<defs>
										<polygon id="SVGID_15_" points="341.4,1014.4 328.4,1082.2 296.4,1082.2 312.1,1012.7 										"/>
									</defs>
									<clipPath id="SVGID_16_">
										<use xlink:href="#SVGID_15_"  style="overflow:visible;"/>
									</clipPath>
									<path class="st43" d="M292.7,1009.2h52.1v76.7h-52.1L292.7,1009.2L292.7,1009.2z"/>
								</g>
							</g>
						</g>
					</g>
				</g>
			</g>
			<g>
				<g>
					<g>
						<g>
							<g>
								<g>
									<defs>
										<polygon id="SVGID_17_" points="318.1,1090.2 321.5,1074.8 336.3,1074.8 332.9,1090.2 										"/>
									</defs>
									<clipPath id="SVGID_18_">
										<use xlink:href="#SVGID_17_"  style="overflow:visible;"/>
									</clipPath>
									<path class="st44" d="M314.6,1071.2H340v22.7h-25.4V1071.2z"/>
								</g>
							</g>
						</g>
					</g>
				</g>
			</g>
			<path class="st36" d="M310.6,860.2l0.1-1.2l12.4,1.1l-0.1,1.2L310.6,860.2z"/>
			<g>
				<g>
					<g>
						<g>
							<g>
								<g>
									<defs>
										<path id="SVGID_19_" d="M320.9,903.9c-2.7-1.3-28-13.4-28.8-13.8l16,4.5c2.1,0.6,5.4,0.5,7.7,0.2
											C316.4,898.1,317.9,901.4,320.9,903.9"/>
									</defs>
									<clipPath id="SVGID_20_">
										<use xlink:href="#SVGID_19_"  style="overflow:visible;"/>
									</clipPath>
									<path class="st45" d="M288.4,886.5h36v20.9h-36V886.5z"/>
								</g>
							</g>
						</g>
					</g>
				</g>
			</g>
			<g>
				<g>
					<g>
						<g>
							<g>
								<g>
									<defs>
										<path id="SVGID_21_" d="M332,987.1c1.8-11.2,0.5-31.3,1.8-40.1l8.7,8.3c9,9.1,24.2,6,29-5.9l10.9-27.3l-12.5-10.6
											l-12.2,25.1c0,0-17.6-23.5-40.8-34.7c-10.6-4.7-24.9-11.7-24.9-11.7c-6.3,7.1-22.2,11.8-22.6,41.7
											c-0.4,29.9-0.1,55.2-0.1,55.2L332,987.1L332,987.1z"/>
									</defs>
									<clipPath id="SVGID_22_">
										<use xlink:href="#SVGID_21_"  style="overflow:visible;"/>
									</clipPath>
									<path class="st46" d="M265.6,886.5h120.3v104.1H265.6V886.5z"/>
								</g>
							</g>
						</g>
					</g>
				</g>
			</g>
			<g>
				<g>
					<g>
						<g>
							<g>
								<g>
									<defs>
										<path id="SVGID_23_" d="M269.2,987.1H346c15,0,26,14.2,22.2,28.7l-17.4,66.8h-31.1l14.2-64.4l-48.8-2.8
											c-8.9-0.5-15.8-7.9-15.8-16.8L269.2,987.1L269.2,987.1L269.2,987.1z"/>
									</defs>
									<clipPath id="SVGID_24_">
										<use xlink:href="#SVGID_23_"  style="overflow:visible;"/>
									</clipPath>
									<path class="st47" d="M265.6,983.5h106.8v102.7H265.6V983.5z"/>
								</g>
							</g>
						</g>
					</g>
				</g>
			</g>
			<g>
				<g>
					<g>
						<g>
							<g>
								<g>
									<defs>
										<polygon id="SVGID_25_" points="381.4,921.4 388.5,901.9 377.2,896.1 369.9,911.6 										"/>
									</defs>
									<clipPath id="SVGID_26_">
										<use xlink:href="#SVGID_25_"  style="overflow:visible;"/>
									</clipPath>
									<path class="st48" d="M366.2,892.4H392v32.5h-25.8V892.4z"/>
								</g>
							</g>
						</g>
					</g>
				</g>
			</g>
			<g>
				<g>
					<g>
						<g>
							<g>
								<g>
									<defs>
										<path id="SVGID_27_" d="M354,1111.2c-3-14.7-22.6-1.1-21.2-18.8c0-0.7,0.1-1.4,0.1-2.1h-14.8l-4.5,20.9H354L354,1111.2z"
											/>
									</defs>
									<clipPath id="SVGID_28_">
										<use xlink:href="#SVGID_27_"  style="overflow:visible;"/>
									</clipPath>
									<path class="st49" d="M310,1086.7h47.5v28.1H310V1086.7z"/>
								</g>
							</g>
						</g>
					</g>
				</g>
			</g>
			<g>
				<g>
					<g>
						<g>
							<g>
								<g>
									<defs>
										<path id="SVGID_29_" d="M366.4,879.9c0,0.2-0.1,0.5-0.2,0.6c-0.9,1.3-2,2.5-3,3.8c-0.8,0.9-1.5,2-2.4,3
											c-3.1,3.3-7.3,5.3-10.5,8.6l-3.2,3.8l-8,9.2l-11.6-10l9.9-7.8c1.3-0.8,2.2-2.5,2.7-3.9s0.6-3,1.1-4.5
											c0.4-1.5,1.1-3,2.4-3.9l5-4.5c0.6-0.5,1.4-0.5,2,0c0.4,0.2,0.5,0.7,0.5,1.1s-0.1,0.7-0.4,0.9l-2.1,2.7
											c-0.4,0.4-0.2,0.9,0,1.3c0.4,0.4,0.8,0.5,1.3,0.4s0.8-0.4,1.2-0.7l8.6-7c0.5-0.4,1.1-0.4,1.5,0.1c0.2,0.2,0.2,0.5,0.2,0.7
											s-0.1,0.6-0.4,0.7l-5.8,5.9l7-6.4c0.5-0.4,1.1-0.4,1.4,0.1c0.1,0.2,0.2,0.5,0.2,0.7s-0.1,0.5-0.2,0.7l-6.6,7l6.3-5.8
											c0.5-0.4,1.1-0.4,1.5,0.1c0.2,0.2,0.2,0.5,0.2,0.7s-0.1,0.5-0.2,0.7l-5.8,6.6l5.7-5.4c0.4-0.4,1.1-0.4,1.3,0.1
											C366.4,879.4,366.4,879.7,366.4,879.9"/>
									</defs>
									<clipPath id="SVGID_30_">
										<use xlink:href="#SVGID_29_"  style="overflow:visible;"/>
									</clipPath>
									<path class="st50" d="M323.9,868.9h46v43.4h-46V868.9z"/>
								</g>
							</g>
						</g>
					</g>
				</g>
			</g>
			<g>
				<g>
					<g>
						<g>
							<g>
								<g>
									<defs>
										<path id="SVGID_31_" d="M377.2,896.1l2.8-5.8V883c0-0.7,0.5-1.3,1.1-1.5c0.8-0.2,1.8,0.4,1.9,1.2l0.7,4
											c0.5,0.7,1.5,0.9,2.2,0.6l7.8-1.2l0.9-3.3c0.5,0,0.9,0.2,1.3,0.6c0.4,0.4,0.7,0.8,0.7,1.4c0,0.7-0.5,1.3-0.9,1.8
											c0.6,0.4,0.8,0.9,0.8,1.7c0,0.6-0.5,1.3-0.9,1.5c0.6,0.7,0.1,1.8-0.7,2.2c0.6,0.9,0.4,2.1-0.2,3.1c-0.6,1-1.5,1.5-2.4,2.2
											c-1.4,1.3-3.1,2.7-3.8,4.6"/>
									</defs>
									<clipPath id="SVGID_32_">
										<use xlink:href="#SVGID_31_"  style="overflow:visible;"/>
									</clipPath>
									<path class="st51" d="M373.6,877.8h26.6v27.7h-26.6L373.6,877.8L373.6,877.8z"/>
								</g>
							</g>
						</g>
					</g>
				</g>
			</g>
			<g>
				<g>
					<g>
						<g>
							<g>
								<g>
									<g>
										<defs>
											<path id="SVGID_33_" d="M311.1,852.4c0,0,2,4.6,0.2,8.7l-0.7,1.4v0.6l-5.4,0.7l-4.3,0.6c0,0.4,0.1,0.8,0.1,1.2
												c0.6,6.6-2.4,10.8-6.1,12.1c-0.9,0.4-1.9,0.5-2.8,0.5c-0.9-2-2.2-4.3-3.9-6.9c0,0,0-0.1-0.1-0.1c-1.8-2.7-3-5.8-3.3-9.2
												c-1.2-11.3,7-21.5,18.3-22.8c9.9-1.1,18.9,5,21.9,14.1C324.9,853.3,318.5,856.4,311.1,852.4"/>
										</defs>
										<clipPath id="SVGID_34_">
											<use xlink:href="#SVGID_33_"  style="overflow:visible;"/>
										</clipPath>
										<path class="st52" d="M281,835.5h47.5v46.2H281V835.5z"/>
									</g>
								</g>
							</g>
						</g>
					</g>
				</g>
			</g>
			<g>
				<g>
					<g>
						<g>
							<g>
								<g>
									<g>
										<defs>
											<path id="SVGID_35_" d="M308.8,859c2.1,2.1,2.1,5.7,0,7.8s-5.7,2.1-7.8,0s-2.1-5.7,0-7.8
												C303.1,856.8,306.7,856.8,308.8,859"/>
										</defs>
										<clipPath id="SVGID_36_">
											<use xlink:href="#SVGID_35_"  style="overflow:visible;"/>
										</clipPath>
										<path class="st53" d="M295.8,853.8H314V872h-18.2V853.8z"/>
									</g>
								</g>
							</g>
						</g>
					</g>
				</g>
			</g>
		</g>
		<g>
			<g>
				<g>
					<g>
						<g>
							<g>
								<g>
									<defs>
										<path id="SVGID_37_" d="M326.1,1028.8c0-7.9-6.5-14.4-14.4-14.4h-62.3c-7.9,0-14.4,6.5-14.4,14.4c0,2.2,0.5,4.4,1.4,6.3
											h88.3C325.5,1033.2,326.1,1031,326.1,1028.8"/>
									</defs>
									<clipPath id="SVGID_38_">
										<use xlink:href="#SVGID_37_"  style="overflow:visible;"/>
									</clipPath>
									<path class="st54" d="M231.4,1010.8h98.3v27.8h-98.3V1010.8z"/>
								</g>
							</g>
						</g>
					</g>
				</g>
			</g>
			<g>
				<g>
					<g>
						<g>
							<g>
								<g>
									<defs>
										<path id="SVGID_39_" d="M236.4,1035c2.4,4.8,7.2,8.2,13,8.2h62.3c5.7,0,10.6-3.3,13-8.2H236.4z"/>
									</defs>
									<clipPath id="SVGID_40_">
										<use xlink:href="#SVGID_39_"  style="overflow:visible;"/>
									</clipPath>
									<path class="st55" d="M232.8,1031.4h95.4v15.4h-95.4V1031.4z"/>
								</g>
							</g>
						</g>
					</g>
				</g>
			</g>
			<path class="st56" d="M269.5,961h1.2v53.4h-1.2V961z"/>
			<g>
				<g>
					<g>
						<g>
							<g>
								<g>
									<defs>
										<path id="SVGID_41_" d="M286,1105.5c0,3.1-2.5,5.6-5.6,5.6s-5.6-2.5-5.6-5.6s2.5-5.6,5.6-5.6S286,1102.4,286,1105.5"/>
									</defs>
									<clipPath id="SVGID_42_">
										<use xlink:href="#SVGID_41_"  style="overflow:visible;"/>
									</clipPath>
									<path class="st57" d="M271.4,1096.4h18.3v18.3h-18.3V1096.4z"/>
								</g>
							</g>
						</g>
					</g>
				</g>
			</g>
			<g>
				<g>
					<g>
						<g>
							<g>
								<g>
									<defs>
										<path id="SVGID_43_" d="M263.6,1105.5c0,3.1-2.5,5.6-5.6,5.6s-5.6-2.5-5.6-5.6s2.5-5.6,5.6-5.6S263.6,1102.4,263.6,1105.5
											"/>
									</defs>
									<clipPath id="SVGID_44_">
										<use xlink:href="#SVGID_43_"  style="overflow:visible;"/>
									</clipPath>
									<path class="st58" d="M248.9,1096.4h18.3v18.3h-18.3V1096.4z"/>
								</g>
							</g>
						</g>
					</g>
				</g>
			</g>
			<g>
				<g>
					<g>
						<g>
							<g>
								<g>
									<defs>
										<path id="SVGID_45_" d="M297.5,1105.5c0,3.1,2.5,5.6,5.6,5.6s5.6-2.5,5.6-5.6s-2.5-5.6-5.6-5.6S297.5,1102.4,297.5,1105.5
											"/>
									</defs>
									<clipPath id="SVGID_46_">
										<use xlink:href="#SVGID_45_"  style="overflow:visible;"/>
									</clipPath>
									<path class="st59" d="M293.8,1096.4h18.3v18.3h-18.3V1096.4z"/>
								</g>
							</g>
						</g>
					</g>
				</g>
			</g>
			<path class="st56" d="M279.9,1043.2h1.2v62.3h-1.2V1043.2z"/>
			<path class="st56" d="M303.5,1105.5h-1.2v-5.2c0-3.2-2.6-5.8-5.8-5.8h-32.1c-3.2,0-5.8,2.6-5.8,5.8v5.2h-1.2v-5.2
				c0-3.9,3.1-7,7-7h32.1c3.9,0,7,3.1,7,7V1105.5z"/>
			<g>
				<g>
					<g>
						<g>
							<g>
								<g>
									<defs>
										<path id="SVGID_47_" d="M303.4,1001.4H237c-6.3,0-11.5-5.1-11.5-11.5v-60.3c0-6.3,5.1-11.5,11.5-11.5h66.4
											c6.3,0,11.5,5.1,11.5,11.5V990C314.7,996.3,309.6,1001.4,303.4,1001.4"/>
									</defs>
									<clipPath id="SVGID_48_">
										<use xlink:href="#SVGID_47_"  style="overflow:visible;"/>
									</clipPath>
									<path class="st60" d="M221.8,914.5h96.5v90.4h-96.5V914.5z"/>
								</g>
							</g>
						</g>
					</g>
				</g>
			</g>
		</g>
	</g>
	<g>
		<path class="st1" d="M286.5,515h322.8c4.8,0,8.6,3.9,8.6,8.6v189.8c0,4.8-3.9,8.6-8.6,8.6H286.5c-4.8,0-8.6-3.9-8.6-8.6V523.6
			C277.9,518.9,281.8,515,286.5,515z"/>
		<path class="st3" d="M290.9,527h314v182h-314V527z"/>
		<g>
			<line class="st2" x1="498.9" y1="617.5" x2="487.9" y2="617.5"/>
			<polyline class="st2" points="337.9,674.5 382.4,674.5 382.4,657 			"/>
			<line class="st2" x1="382.4" y1="674" x2="382.4" y2="686"/>
			<path class="st2" d="M539.9,674.5H439.4V645"/>
			<circle class="st61" cx="439.4" cy="644.6" r="12"/>
			<circle class="st1" cx="498.5" cy="655.7" r="6.4"/>
			<path class="st62" d="M551.8,662H569c6.6,0,11.9,5.3,11.9,11.9v0.2c0,6.6-5.3,11.9-11.9,11.9h-17.2c-6.6,0-11.9-5.3-11.9-11.9
				v-0.2C539.9,667.3,545.2,662,551.8,662z"/>
			<path class="st1" d="M526.4,545h39c8.6,0,15.5,6.9,15.5,15.5l0,0c0,8.6-6.9,15.5-15.5,15.5h-39c-8.6,0-15.5-6.9-15.5-15.5l0,0
				C510.9,551.9,517.8,545,526.4,545z"/>
			<circle class="st63" cx="564.2" cy="617.8" r="13.5"/>
			<path class="st64" d="M498.9,604h27v27h-27V604z"/>
			<path class="st2" d="M550.9,617.5h-25"/>
			<path class="st62" d="M474.9,604h13v27h-13V604z"/>
			<line class="st2" x1="545.7" y1="560.8" x2="512" y2="617.8"/>
			<line class="st2" x1="498.4" y1="674" x2="498.4" y2="662"/>
			<path class="st1" d="M313.9,662h24v24h-24V662z"/>
			<line class="st2" x1="463.8" y1="694.6" x2="484.3" y2="674.1"/>
			<path class="st64" d="M321,625h9.8c3.9,0,7.1,3.2,7.1,7.1v9.8c0,3.9-3.2,7.1-7.1,7.1H321c-3.9,0-7.1-3.2-7.1-7.1v-9.8
				C313.9,628.2,317.1,625,321,625z"/>
			<circle class="st61" cx="463.8" cy="694.6" r="4.3"/>
			<circle class="st62" cx="413.9" cy="669.8" r="4.3"/>
			<path class="st2" d="M325.4,662v-13"/>
			<path class="st62" d="M395.3,545h0.2c3,0,5.4,2.4,5.4,5.4v20.2c0,3-2.4,5.4-5.4,5.4h-0.2c-3,0-5.4-2.4-5.4-5.4v-20.2
				C389.9,547.4,392.3,545,395.3,545z"/>
			<path class="st2" d="M481.4,604v-19"/>
			<path class="st61" d="M320.3,604h11.3c3.5,0,6.4,2.8,6.4,6.4v0.3c0,3.5-2.8,6.4-6.4,6.4h-11.3c-3.5,0-6.4-2.8-6.4-6.4v-0.3
				C313.9,606.8,316.7,604,320.3,604z"/>
			<line class="st2" x1="325.4" y1="625" x2="325.4" y2="617"/>
			<line class="st2" x1="389.9" y1="560.5" x2="380.9" y2="560.5"/>
			<path class="st64" d="M372.2,686h24.5c2.4,0,4.3,1.9,4.3,4.3v0.5c0,2.4-1.9,4.3-4.3,4.3h-24.5c-2.4,0-4.3-1.9-4.3-4.3v-0.5
				C367.9,687.9,369.8,686,372.2,686z"/>
			<circle class="st64" cx="405.3" cy="690.3" r="4.3"/>
			<polyline class="st2" points="337.9,610.5 354.6,610.5 375.4,589.7 375.4,576 			"/>
			<path class="st2" d="M364.7,599.8l-23.3-23.3V564"/>
			<circle class="st1" cx="429" cy="610" r="5.2"/>
			<circle class="st1" cx="387.7" cy="610" r="5.2"/>
			<circle class="st1" cx="398" cy="610" r="5.2"/>
			<circle class="st1" cx="408.4" cy="610" r="5.2"/>
			<circle class="st1" cx="418.7" cy="610" r="5.2"/>
			<circle class="st1" cx="439.4" cy="610" r="5.2"/>
			<line class="st2" x1="439.4" y1="633" x2="439.4" y2="615"/>
			<line class="st2" x1="387.4" y1="615" x2="387.4" y2="633"/>
			<path class="st64" d="M442.9,574v15h-16v-11h-11v-15h16v11H442.9z"/>
			<path class="st2" d="M415.9,570.5h-15"/>
			<path class="st1" d="M442.9,545h38v6h-38V545z"/>
			<line class="st2" x1="466.4" y1="568" x2="466.4" y2="551"/>
			<line class="st2" x1="431.2" y1="653.2" x2="417.1" y2="667.4"/>
			<path class="st63" d="M373.3,632.4c-6.7,0-12.2,5.5-12.2,12.2s5.5,12.2,12.2,12.2h27.5v-24.4H373.3L373.3,632.4z"/>
			<path class="st63" d="M370,544.8v26.4c0,3.1,2.5,5.5,5.5,5.5s5.5-2.5,5.5-5.5v-26.4H370z"/>
			<path class="st32" d="M317.7,544.8v18.9H343c0,0,13.7,0,12-18.9H317.7z"/>
			<path class="st61" d="M464.4,585.2c0,0,9.3-7.2,22.3-8.4c0,0-3.3-7.6-9.3-8.9c0,0-9-1.3-13,7C464.4,574.8,461,581.8,464.4,585.2z
				"/>
		</g>
		<rect x="318.9" y="722.4" class="st32" width="258" height="8.7"/>
	</g>
	<g>
		<circle class="st3" cx="732.4" cy="463" r="7.5"/>
		<path class="st2" d="M732.4,431V3"/>
		<g>
			<path class="st9" d="M699.8,463.7c0,0,2.5-8,8.2-14c0,0,4-3.5,7-5.8c0,0,10.5-5.5,11.5-12.8h12.8c0,0,2.5,7.5,9.5,11.2
				c0,0,5.8,3.8,8.8,7c0,0,7.8,8.2,8.5,14.2h-66.3V463.7z"/>
			<path class="st65" d="M726.6,431.2c0,0-1.5,5.5-3.8,7.2c0,0,2.5,2.8,9.5,3c0,0,6.5,0.8,10.8-2.8c0,0-3.8-5.8-3.8-7.5L726.6,431.2
				L726.6,431.2z"/>
		</g>
	</g>
	<g>
		<circle class="st3" cx="1439.3" cy="463" r="7.5"/>
		<path class="st2" d="M1439.3,431V3"/>
		<g>
			<path class="st9" d="M1406.8,463.7c0,0,2.5-8,8.2-14c0,0,4-3.5,7-5.8c0,0,10.5-5.5,11.5-12.8h12.8c0,0,2.5,7.5,9.5,11.2
				c0,0,5.8,3.8,8.8,7c0,0,7.8,8.2,8.5,14.2h-66.3V463.7z"/>
			<path class="st65" d="M1433.5,431.2c0,0-1.5,5.5-3.8,7.2c0,0,2.5,2.8,9.5,3c0,0,6.5,0.8,10.8-2.8c0,0-3.8-5.8-3.8-7.5
				L1433.5,431.2L1433.5,431.2z"/>
		</g>
	</g>
	<g>
		<circle class="st3" cx="2460.7" cy="463" r="7.5"/>
		<path class="st2" d="M2460.7,431V3"/>
		<g>
			<path class="st9" d="M2428.2,463.7c0,0,2.5-8,8.2-14c0,0,4-3.5,7-5.8c0,0,10.5-5.5,11.5-12.8h12.8c0,0,2.5,7.5,9.5,11.2
				c0,0,5.8,3.8,8.8,7c0,0,7.8,8.2,8.5,14.2h-66.3V463.7z"/>
			<path class="st65" d="M2454.9,431.2c0,0-1.5,5.5-3.8,7.2c0,0,2.5,2.8,9.5,3c0,0,6.5,0.8,10.8-2.8c0,0-3.8-5.8-3.8-7.5
				L2454.9,431.2L2454.9,431.2z"/>
		</g>
	</g>
	<g>
		<g>
			<path class="st3" d="M851.5,1107.5v4h-37.8v-4H851.5z"/>
			<polygon class="st3" points="814.4,1089.7 814.4,1096.2 825.9,1096.2 825.9,1094.3 827.7,1093.8 830.3,1093.8 830.3,1089.7 			
				"/>
			<path class="st66" d="M813.8,1107.5l0.7-11.3H826v-1.9l1.8-0.5h2.6c0,0,0.1,4.1,1.6,5.5c0,0,3.2,3.9,8.1,4.6
				c0,0,8.8,3.1,10.9,3.6L813.8,1107.5L813.8,1107.5z"/>
		</g>
		<g>
			<g>
				<path class="st67" d="M847.5,835.8c0,0,1.8,5.2,1.8,7.7l-15.4,4.4l-4.2-7.9L847.5,835.8z"/>
				<g>
					<path class="st67" d="M812.8,875.8l24.5,2.9c0,0-3.3-12.3,3.1-13.8c6.4-1.5,6.7-1.6,7.2-7.6c0.2-3.4,2.7-2.6,3-4.6
						c0.2-1.9-1.8-4.4-1.3-9.2l-35.2,8.2c5.3,10.6,8.7,13.8-1.7,23.8L812.8,875.8z"/>
					<g>
						<path class="st2" d="M847.5,844l-0.8,5.2"/>
						<path class="st1" d="M847,847.3l-10.2-1.8l0.1-0.4l10.3,0.8L847,847.3L847,847.3z"/>
					</g>
					<circle class="st67" cx="830.3" cy="846.6" r="5.2"/>
				</g>
			</g>
			<path class="st61" d="M847.9,836.9c0,0-3-11-14.5-12c0,0-9-1.5-15.9,6c0,0-3.9,4.4-4.2,10.1c0,0-1.6,7.1-6.1,12.4
				c0,0-6.9,9.2-8,12.4c0,0-3.1,6.2,0.5,12.5c0,0,0.7,4.1-1.8,7.3c0,0-6.7,14.4-3.9,20.2c0,0,1,9.4,13.5,15c0,0,0.2-3.4-0.2-7
				c0,0-1.8-4.8-0.5-13.1c0,0,6.5-1.1,10.5-6.2c0,0,2.5-2.9,3.3-10c0,0-0.8-9,3.9-13.6c0,0,3.9-4.1,3.5-10.2c0,0-0.9-7.2-2-10.6
				c0,0-1.6-5.8,1.2-7c0,0,1.9-2.3,4.8-1.5c0,0,2.2,0.2,3.1,2c0,0,1.1,2.8,0.4,4.3c0,0,5.6-4,7.2-9.4c0,0-0.5,3.8-1.6,5.4
				C841.2,843.9,846.3,841.5,847.9,836.9z"/>
		</g>
		<g>
			<path class="st9" d="M808.4,1091.5c0,0,1.5-33.2,1.6-40.9l1.1-30.1c0,0,1.6-14.8-2-27.4c0,0-5.4-17.4-6.6-21.5
				c0,0-2.5-16.5-0.6-24.2l54.8-14.4c0,0,0.6,13.8-6.6,19.2c0,0-5.9,8.8-5.9,15.1c0,0,0.9,33.8,0.4,42.6c0,0-0.8,23-3.5,31.1
				c0,0-3.4,17.6-1.5,30.5c0,0,0.9,17.4,1.9,19.9L808.4,1091.5L808.4,1091.5z"/>
			<path class="st67" d="M868.9,931.3l3.8,0.7c0,0,5.3,1.1,6.9-1.2c0,0,2.1-2.5,2.5-3l4.4,1.9c0,0,0.8,0.3,1.7-0.1l0.4-0.6l-5.3-2.9
				l0.6-0.4l3.7,1.1c0,0,1.4,0.4,2.8,0.2c0,0,1.6-0.6,0.4-1.2l-5.4-1.9l-2.2-0.9c0,0-0.9-0.4-2.3,0.5l-2.8,1.4c0,0-1.6,1.5-4.3,0.4
				l-21.1-7.2l-4.6,10.6L868.9,931.3z"/>
			<path class="st68" d="M801.9,947.4c0,0,5.6-21.8,5.6-25.3c0,0,0.8-5.8-0.6-9.6c0,0-1.1-5.1-0.1-11.7c0,0,8.4-1.9,11.3-7.5
				c0,0,1.7-3.3,2.5-7.5c0,0-0.3-8.1,0.7-9l16,1.9l5.2,9.7c0,0,7.5,8.2,5.4,18.8c0,0-0.2,2.8-1,4.2c0,0-0.2,1.8,1,2.6
				c0,0,2.2,2.1,3.2,3.5c0,0,0.6,0.6,2.1,0.6l-4.4,10.8c0,0,5.1,0.6,7.4,0.9c0,0,0.9,5,0,6.5c0,0-11.1,0.8-13.8,1.9
				c0,0-11.4,3.1-16.4,4.6c0,0-12.9,4.9-20.5,4.8C805.7,947.4,803.7,947.8,801.9,947.4z"/>
		</g>
	</g>
	<rect x="864.1" y="944.2" class="st1" width="110.7" height="3.6"/>
	<g>
		<path class="st2" d="M910.8,934.3c10-3.5,19.6-8.3,29.8-11.2c10.2-3,21.4-4.1,31.3-0.4c15.9,5.9,25.6,24.9,21,41.2
			c-3,10.8-11,19.3-17.4,28.5c-7,10.1-12.4,21.6-13.9,33.9c-1.5,12.2,1.3,25.2,9,34.8s20.6,15.3,32.7,13c6.7-1.3,12.8-4.9,18.7-8.5"
			/>
		<path class="st2" d="M942.7,873.4c16.1-0.7,31,10.4,38.6,24.6c7.6,14.2,8.8,31,7.6,47c-0.7,8.4-1.9,16.9-0.3,25.2
			c1.7,8.7,6.4,16.6,7.5,25.3c1,7.8-1,15.7-3,23.4l-5,18.9c-1.9,7.3-3.9,14.9-3.2,22.4s4.4,15.3,11.2,18.7c7.4,3.7,16.2,1.5,24-1.3"
			/>
		<path class="st2" d="M942.7,876.5c0,0,15.3,2.3,23.7,10.7c0,0,15.4,11.3,16.4,38.7c0,0-0.3,27.3,7,34c0,0,10,8.3,6.7,26.7
			c0,0-5.7,17.3-12,23.7c0,0-17.3,35.7,7.7,53.7c0,0,12.4,11.5,29.9,10.8"/>
	</g>
	<path class="st16" d="M862.9,967h349c3.3,0,6,2.7,6,6l0,0c0,3.3-2.7,6-6,6h-349c-3.3,0-6-2.7-6-6l0,0
		C856.9,969.7,859.6,967,862.9,967z"/>
	<g>
		<g>
			<path class="st1" d="M949.5,807.5l7.5,1.3l-19.2,109.1l-7.5-1.3L949.5,807.5z"/>
			<circle class="st1" cx="954.4" cy="866.6" r="7.8"/>
			<path class="st1" d="M952.5,873.9v57.7h-12v3h28.3v-3h-6.3c0,0-6-0.7-6-5.7v-52H952.5z"/>
		</g>
		<path class="st1" d="M914.1,928.2L879,931c0,0,0.5,3.4,3,3.4h28.5C910.5,934.3,915.1,932.7,914.1,928.2z"/>
		<g>
			<path class="st5" d="M861.3,934.3h114c2.8,0,5,2.2,5,5l0,0c0,2.8-2.2,5-5,5h-114c-2.8,0-5-2.2-5-5l0,0
				C856.3,936.5,858.5,934.3,861.3,934.3z"/>
			<g>
				<line class="st2" x1="892.3" y1="946" x2="869.1" y2="969.2"/>
				<line class="st2" x1="869.1" y1="946" x2="892.3" y2="969.2"/>
				<line class="st2" x1="944.4" y1="946" x2="967.7" y2="969.2"/>
				<line class="st2" x1="967.7" y1="946" x2="944.4" y2="969.2"/>
			</g>
		</g>
	</g>
	<g>
		<g>
			<path class="st69" d="M1010.9,1020h39v91h-39V1020z"/>
			<path class="st70" d="M1010.9,1020h39v54h-39V1020z"/>
			<g>
				<g>
					<ellipse class="st71" cx="1016.8" cy="1081.1" rx="2.3" ry="2.3"/>
					<ellipse class="st71" cx="1023.7" cy="1081.1" rx="2.3" ry="2.3"/>
				</g>
				<rect x="1023.9" y="1092" class="st70" width="26" height="1"/>
				<rect x="1023.9" y="1095" class="st70" width="26" height="1"/>
				<rect x="1023.9" y="1098" class="st70" width="26" height="1"/>
			</g>
		</g>
		<path class="st69" d="M1010.9,1020v26.2c0,0,6.3,4.8,20.2,4.8c0,0,15.5-0.8,18.8-4.8V1020H1010.9z"/>
		<g>
			<rect x="1010.9" y="1030.6" class="st72" width="22.6" height="4.8"/>
			<circle class="st72" cx="1033.5" cy="1033" r="2.4"/>
		</g>
	</g>
	<g>
		<path class="st3" d="M1105.9,1056h49v23h-49V1056z"/>
		<g>
			<circle class="st1" cx="1117.8" cy="1066.9" r="4.1"/>
			<path class="st2" d="M1117.4,1071v12.9c0,16.9-20.5,15.3-32.6,1.2"/>
		</g>
		<g>
			<circle class="st1" cx="1141" cy="1066.9" r="4.1"/>
			<path class="st2" d="M1141,1067.9v12.7c0,0-0.8,11.8-7.9,15c0,0-5.1,4.5-15.7-1.5c0,0-11.1-10.2-20.8-6"/>
		</g>
	</g>
	<g>
		<g>
			<path class="st69" d="M1066.9,1020h39v91h-39V1020z"/>
			<path class="st70" d="M1066.9,1020h39v54h-39V1020z"/>
			<g>
				<circle class="st71" cx="1073.6" cy="1081.1" r="2.3"/>
				<circle class="st71" cx="1080.5" cy="1081.1" r="2.3"/>
				<rect x="1079.9" y="1092" class="st70" width="26" height="1"/>
				<rect x="1079.9" y="1095" class="st70" width="26" height="1"/>
				<rect x="1079.9" y="1098" class="st70" width="26" height="1"/>
			</g>
		</g>
		<path class="st69" d="M1066.9,1020v26.2c0,0,6.3,4.8,20.2,4.8c0,0,15.5-0.8,18.8-4.8V1020H1066.9z"/>
		<g>
			<rect x="1066.9" y="1030.6" class="st72" width="22.6" height="4.8"/>
			<circle class="st72" cx="1089.5" cy="1033" r="2.4"/>
		</g>
	</g>
	<g>
		<g>
			<path class="st3" d="M1046,953.8h-12.2l3.2-39h5.7L1046,953.8z"/>
			<path class="st3" d="M1028,953.8h23c3.6,0,6.5,2.9,6.5,6.5l0,0c0,3.6-2.9,6.5-6.5,6.5h-23c-3.6,0-6.5-2.9-6.5-6.5l0,0
				C1021.5,956.7,1024.4,953.8,1028,953.8z"/>
			<path class="st63" d="M1032.5,951.8h2v2h-2V951.8z"/>
			<path class="st1" d="M1038.5,951.8h2v2h-2V951.8z"/>
			<path class="st73" d="M1044.5,951.8h2v2h-2V951.8z"/>
		</g>
		<g>
			<circle class="st74" cx="1039.9" cy="908.7" r="34.8"/>
			<circle class="st75" cx="1039.9" cy="908.7" r="30.1"/>
			<g>
				<path class="st3" d="M1034.7,903.1c0,0-2.2-4.4-3-7.6c0,0-2-5-1-7.5c0,0,0.5-4.9,6-5.1c0,0,4.5-0.9,9.4,0.6c0,0,4.2,1.5,5.6,2.2
					c0,0,3.1,1.8,3.5,3.5c0,0,1.5,5.2-1.5,6.9c0,0-4.5,2-5.6,3.1c0,0-3.2,2-3.4,2.9L1034.7,903.1z"/>
				<path class="st3" d="M1047.3,906.8c0,0,4.9,0.3,8.1,1.3c0,0,5.3,0.8,7,3c0,0,3.9,2.9,1.3,7.8c0,0-1.6,4.3-5.3,7.7
					c0,0-3.5,2.9-4.8,3.7c0,0-3.1,1.8-4.8,1.2c0,0-5.3-1.4-5.1-4.8c0,0,0.6-4.9,0.2-6.4c0,0-0.1-3.8-0.7-4.4L1047.3,906.8z"/>
				<path class="st3" d="M1038.4,916.9c0,0-3,3.9-5.6,6c0,0-3.6,4-6.3,4.2c0,0-4.6,1.7-7.2-3.2c0,0-2.7-3.7-3.5-8.7
					c0,0-0.5-4.5-0.4-6c0,0,0.2-3.6,1.6-4.7c0,0,4.1-3.6,6.8-1.6c0,0,3.8,3.2,5.3,3.7c0,0,3.2,2.1,4.1,1.8L1038.4,916.9z"/>
			</g>
			<circle class="st4" cx="1039.9" cy="908.7" r="7.7"/>
		</g>
	</g>
	<g>
		<g>
			<path class="st76" d="M1274.7,975.5h-0.2c-7.9-0.7-13.8-7.7-13-15.6l4.5-49.6c0.7-7.9,7.7-13.8,15.6-13h0.2
				c7.9,0.7,13.8,7.7,13,15.6l-4.5,49.6C1289.6,970.4,1282.6,976.2,1274.7,975.5z"/>
			<g>
				<g>
					<path class="st3" d="M1232.3,1080.8l-8.1-16.7l-12,6.3c0,0,6.2,9.2,5,15.2l1.7,5.8l12.5-4L1232.3,1080.8z"/>
					<path class="st1" d="M1203.1,1104.1l35.2-11.2l-6-12.1c-8.3,2.5-6.5,8.1-15.1,4.8C1215.2,1100.1,1203.5,1093,1203.1,1104.1z"/>
				</g>
				<path class="st1" d="M1228.5,1073.1l-14.7,8.8l-33.5,5l-3.8-35.2l-2.7-23.3c0,0-1.7-14.3,6.7-23.2c0,0,7.2-9,21.5-10.2l33.2-3.5
					c0,0,10-1.8,18.2,1c0,0,18.3,9.7,21.3,10.7c0,0-0.4,15.6-22.8,16l-45.2,5.2L1228.5,1073.1z"/>
				<g>
					<path class="st3" d="M1216,1097.8l-2.7-18.4l-13.3,2.4c0,0,3.1,10.7,0.2,16l-0.2,6h13.1L1216,1097.8z"/>
					<path class="st1" d="M1218.2,1110.6h-36c0,0,0.3-1.1,1-2.1c0,0,2.2-2.6,5.3-3.4c0,0,3.8,0.5,5.5-0.8c0,0,5.7-2.5,6.2-6.6
						c0,0,0.8,1.1,3.2,1.6c0,0,1.7,0.7,5.2,0c0,0,2.2-1.7,5.7-1.6h1.7L1218.2,1110.6z"/>
				</g>
				<g>
					<g>
						<path class="st77" d="M1182.2,937.6c0,0-2.6,0.6-4.8-1.1l-3.2,1.1c0,0-1.3,0.7-1.8,0.1c0,0-0.6-1,0.3-1.2l2.1-0.8
							c0,0-0.8-0.2-2.2,0l-2.1,0.6c0,0-1.2,0.4-1.2-0.7c0,0,0-1,0.8-1.5C1169.9,934.1,1176,930.9,1182.2,937.6z"/>
						<path class="st78" d="M1196.3,941.2l-7.6-4.3l-6.7-4l-6.8-2.5l-5.8-0.8c0,0-0.5-0.2-2,0c0,0-1.7,0.2-0.8,1.5
							c0,0,0.8,0.7,2.5,0.8c0,0-0.8,0.3-1.3,0.6c0,0-1.8,0.5-1.4,1.3c0,0-0.3,1.4,2,0.9c0,0,4.2-0.9,7,0c0,0,2.4,0.5,3.1,0.8
							c0,0,2.9,2.9,3.8,3.4c0,0,1.6,2.4-0.9,3.1h-8.1c0,0-1.9-0.1-2.1,1.1c0,0-0.6,1.6,1.9,1.8c0,0,4.8,0.4,6.2,0.8
							c0,0,4.2,1.4,6.5,0.7c0,0,3-1.4,4.6-0.5l4.1,2.3L1196.3,941.2z"/>
					</g>
					<polygon class="st3" points="1225.7,947.8 1195.1,940.6 1191.5,955.5 1229.6,967.8 					"/>
				</g>
				<g>
					<g>
						<path class="st77" d="M1179.5,960.6c0,0-1.1,1.5-2.6,1.2c0,0-1.7-0.6-0.6-1.9l4-4.8h3.6l7.6,4.6l-1.3,2.6c0,0-4.1,0.8-5.9,0
							c0,0-2.6-1-0.7-2.1l3.8-0.2l-3.8-3.5L1179.5,960.6z"/>
						<path class="st78" d="M1212.9,965.6l-7.1-1.2c0,0-6.4-1.5-9.2,0c0,0-4.9,1.6-7.9-1.2c0,0-4.5-3.8-5.2-5c0,0,0.2-1.1-3.9,0
							l-9.9,2.6c0,0-1.6,0.6-2-0.5c0,0-0.6-0.9,0-2.1l12.8-6.2c0,0,2.8-1.2,4.5,0l6.6,3.2c0,0,2.7,2.1,7.5,0.8l10.8-2.1
							L1212.9,965.6z"/>
					</g>
					<path class="st3" d="M1240.9,945.9l-33.5,4.3l5.1,15.6h30.6L1240.9,945.9z"/>
				</g>
				<path class="st3" d="M1242.5,894.3c0,0-11.3,16.5-12.9,28.5c0,0-5.2,26.1-4.4,35.7c0,0-1.6,13.4-4.9,21.7c0,0-5,12.4-9.7,14.1
					c0,0,23.1-2.7,27.2-2.9c0,0,12.9-1,15.6,1.3c0,0,18.5,9.9,21.3,10.7c0,0,2.6-5.8,3-12.3c0,0,1.1-16.9,1.5-21.6
					c0,0,1.5-13.8,1.4-20.7c0,0,0-11.9-4-20.6c0,0-8-22.6-7.8-28.6L1242.5,894.3z"/>
			</g>
			<g>
				<path class="st9" d="M1274.2,848l-11.3-6.6c0,0-3.7-2.4-5.8,0l-17.1,35.7c0,0-0.8,1.6,0.8,2.9l6.5,6.7l15.7,5.1l7.7-3.4
					c0,0,2-4.4,4.2-6.2c0,0,3.8-3.8,4.9-7l7.9-15.8c0,0,1.2-3.4-1.1-4.6L1274.2,848z"/>
				<path class="st78" d="M1257.3,860.9l2.5-5l-8.5-4.9l-5.7,11.1l-2.8,3c0,0-2.2,1.5-0.9,3.1c0,0,1.8,1.1,0.4,3.4l5,2.2
					c0,0,4.4,1.8,7.8,0l2.3-3.6c0,0,2.6-2.9,2.5-5.8C1259.8,864.5,1259.8,862.4,1257.3,860.9z"/>
				<g>
					<circle class="st78" cx="1262.8" cy="871.9" r="5.2"/>
					<path class="st78" d="M1244,883.6c0,0,1.4,2.1,0.9,4.8c0,0-1.5,4.5-2.4,5.9l26.2,5.2c0,0,0.1-7.4,1.8-11.1c0,0-2.9-2.6-3.5-4.8
						c0,0-2.4-4.1-0.7-7.9l-7.7-6.4l-6,12.4C1252.6,881.8,1249,887.9,1244,883.6z"/>
				</g>
			</g>
			<g>
				<path class="st2" d="M1284.6,1019.2l6.4-49.8"/>
				<g>
					<circle class="st1" cx="1251.9" cy="1103.3" r="5.2"/>
					<circle class="st1" cx="1272.5" cy="1103.3" r="5.2"/>
					<circle class="st1" cx="1231.2" cy="1103.3" r="5.2"/>
					<line class="st2" x1="1251.9" y1="1042.9" x2="1251.9" y2="1101.7"/>
					<path class="st2" d="M1231.2,1101.7c0,0-1-8.1,7.2-8.1h27.8c0,0,6.3,0.2,6.3,6.8"/>
				</g>
				<g>
					<path class="st76" d="M1281.3,1046.3h-56.8c-7.3,0-13.3-6-13.3-13.3v-0.8c0-7.3,6-13.3,13.3-13.3h56.8c7.3,0,13.3,6,13.3,13.3
						v0.8C1294.7,1040.3,1288.7,1046.3,1281.3,1046.3z"/>
					<path class="st1" d="M1212.2,1038.1c2,4.8,6.8,8.2,12.3,8.2h56.8c5.5,0,10.3-3.4,12.3-8.2H1212.2z"/>
				</g>
			</g>
		</g>
		<g>
			<g>
				<g>
					<path class="st28" d="M1352.4,872.6c0,0-6.8,20.7-9,27.3c0,0-5.5,17.2-6,25.7c0,0-5.3,36.8-1.8,51.9h52.2
						c0,0-1.7-50.6-2.7-57.5l15-20.4l-25.5-20.6c0,0-3.8-1.4-6.7-2.2C1367.9,876.8,1353.7,874.3,1352.4,872.6z"/>
					<path class="st33" d="M1325.5,860.1l-10,20.2l27,22.4l9.8-30l-12.8-5.2c0,0-8.8-4.2-9.7-5.2
						C1329.9,862.3,1327,859.9,1325.5,860.1z"/>
				</g>
				<g>
					<line class="st10" x1="1334.5" y1="969" x2="1387.5" y2="969"/>
					<line class="st10" x1="1334.3" y1="961" x2="1387.1" y2="961"/>
					<line class="st10" x1="1334.5" y1="953" x2="1386.9" y2="953"/>
					<line class="st10" x1="1335.2" y1="945" x2="1386.6" y2="945"/>
					<line class="st10" x1="1335.9" y1="937" x2="1386.2" y2="937"/>
					<line class="st10" x1="1336.9" y1="928" x2="1385.7" y2="928"/>
					<line class="st10" x1="1338.1" y1="920" x2="1385.2" y2="920"/>
					<line class="st10" x1="1339.7" y1="912" x2="1391" y2="912"/>
					<line class="st10" x1="1342.4" y1="904" x2="1396.5" y2="904"/>
					<line class="st10" x1="1334.7" y1="896" x2="1395.6" y2="896"/>
					<line class="st10" x1="1324.9" y1="888" x2="1385.7" y2="888"/>
					<line class="st10" x1="1316.2" y1="879" x2="1374.5" y2="879"/>
					<line class="st10" x1="1319.9" y1="870.1" x2="1346" y2="870.1"/>
					<line class="st10" x1="1324" y1="862.1" x2="1329.9" y2="862.1"/>
				</g>
			</g>
			<path class="st16" d="M1287.8,813.7l-5.1-6.6c0,0-0.9-1-1.8-0.4c0,0-0.8,0.6,0,2l4.7,7.8c0,0-1.3-0.2-1.4,0.6c0,0-0.4,0.7,0,1.4
				c0,0-1.1,0.3-1.2,1.3c0,0-0.7,1.2-0.2,2.2c0,0-0.2,1.2-0.8,1.6c0,0-0.8,0.8-0.2,2.2c0,0,1,1.2,1.6,2l2.1,2.1c0,0,1.2,1.1,2.5,1.7
				c0,0,1.2,0.4,2.9,3.1l18.2,29.4c0,0,2,4.8,6.1,7.7l3.4,3l7.2-14.5l-2.2-1l-8.8-11.8l-16.7-19.9l-3.4-4l-1.1-3.2c0,0,0-4.1-2-5.1
				C1291.5,815.1,1288.5,814.6,1287.8,813.7z"/>
			<g>
				<path class="st16" d="M1368.6,828.6c0,0-5.6-0.9-10.9,2.8c0,0-5.7,4.2-6.8,8c0,0-1.2,4.8-2.5,6.1l-2.1,2.6c0,0-0.9,1.5,0.5,2.6
					c0,0,1.6,2,0.8,4.2l-0.8,2.9c0,0-1.1,2.3,0.8,3.6l3.6,2.3c0,0,2.6,0.8,2.7,4.5l-1.2,4.4l18.4,5.1c0,0-1.2-0.7-1.1-3.9
					c0,0-0.1-3,1.1-4.7l4.7-4.6C1375.7,864.5,1381.5,832.3,1368.6,828.6z"/>
				<path class="st78" d="M1384.9,846.6c0-6.6-3.1-9.8-3.1-9.8c-2.8-4.7-8.2-7.1-8.2-7.1c-2-1.1-5.4-1.3-5.4-1.3
					c-2.8-0.8-4.9-3.4-4.9-3.4c-1.8-0.7-1,0.8-1,0.8c0.8,1.1,4.1,3.7,4.1,3.7c-3.4-0.2-5.5-2.7-5.5-2.7c-0.6-0.6-0.9,0.4-0.9,0.4
					c3.2,4.2,9.7,4.5,9.7,4.5c2.4,3.4-0.9,7.2-0.9,7.2c-1.5,2.2-5.3,3.7-5.3,3.7c-3.2,1.7-3.8,4.8-3.8,4.8l2.6,2
					c0.8-1.7,2.4-2.8,4.4-2.8c2.7,0,4.8,2.1,4.8,4.8c0,1.5-0.7,2.9-1.8,3.7l0.1,0.1c-1.3,4.3,0.7,5.9,0.7,5.9
					c1.8,3.2,4.7,3.9,4.7,3.9c2.8-1.8,7.4-8.1,7.4-8.1C1385.4,851.5,1384.9,846.6,1384.9,846.6z"/>
			</g>
			<path class="st16" d="M1401.4,923.3l-16.1,16.2c0,0-4.4,4.6-5.9,7.1l-3,4.1c0,0-1.2,1.3-0.5,2.2c0,0,1,1.5,2.4,0l2.8-3.3
				c0,0,2.1-2.1,3.1-0.2c0,0,1.6,3.5,1.8,6.8l0.6,6.8c0,0-0.5,2.6,1,2.6c0,0,1.5,0.8,1.8-2.6c0,0,0.5-11.4,0.4-14.5
				c0,0-0.4-4.5,3.1-6.2l12.9-9l7.4-5.2c0,0,7-5.9,1.8-16l-15-12.6l-10.6,14.9L1401.4,923.3z"/>
			<g>
				<g>
					<path class="st79" d="M1374.6,1094.5l0.4-3l-10.9-0.4l-4.3,6l8.5,3.9l5.4-3.2L1374.6,1094.5L1374.6,1094.5z"/>
					<path class="st80" d="M1365.5,1092.8c0,0,1.4,4.2-0.6,5.2c0,0,1.5,2.2,4.6,2c0,0,3.2-0.5,4.4-3l1.1,7.1c0,0,2.1,4.5-0.9,5.1
						h-31.9c0,0-4.1-2.6,0-5.1c0,0,9.1-1,15.8-6.8c0,0,2.9-2.4,4.2-4.2L1365.5,1092.8z"/>
				</g>
				<g>
					<path class="st79" d="M1408.9,1084.4l-4.1-9.2l-9.7,2.9c0,0,4.1,5.6,2.8,8.2s-1,7.3-1,7.3l9.3-0.6l3.2-5.4L1408.9,1084.4z"/>
					<path class="st80" d="M1398.2,1085.1c0,0,3.9,0.6,3.4,4.8c0,0,3.4,0.9,5.7-1.5c0,0,1.7-2.3,1.7-4l4,4.6l2,2.5
						c0,0,2.4,2.4-0.9,5.2l-24.2,14c0,0-8,2.9-6.5-2.5c0,0,0.4-1.8,2-3.1c0,0,5.9-5.5,8.4-10.1
						C1393.7,1095,1398.3,1088,1398.2,1085.1z"/>
				</g>
				<g>
					<path class="st81" d="M1387,992.5l0.4,36.3l19.8,48.5l-23.9,13L1359,1033l-1.5-40.5L1387,992.5L1387,992.5z"/>
					<path class="st8" d="M1387.7,977.5c0.9,33-8.5,44.5-9.7,73.9s-3,42.1-3,42.1h-30.6c4.7-78,0-116,0-116H1387.7z"/>
				</g>
			</g>
		</g>
	</g>
	<g>
		<polygon class="st3" points="878.4,1110 873.9,1110 873.9,979 882.7,979 		"/>
		<polygon class="st3" points="1196.4,1110 1200.9,1110 1200.9,979 1192.1,979 		"/>
	</g>
	<g>
		<path class="st3" d="M883.9,538h367v240h-367V538z"/>
		<rect x="868.9" y="778" class="st1" width="394" height="7"/>
		<rect x="868.9" y="531" class="st1" width="394" height="7"/>
		<path class="st2" d="M1065.4,781v34"/>
		<circle class="st82" cx="1065.9" cy="819.9" r="5"/>
		<g>
			<g>
				<path class="st83" d="M916.4,572.5h303v182h-303V572.5z"/>
				<line class="st83" x1="915.9" y1="678.5" x2="1218.9" y2="678.5"/>
				<line class="st83" x1="988.4" y1="602" x2="988.4" y2="754"/>
				<line class="st83" x1="1066.4" y1="602" x2="1066.4" y2="754"/>
				<path class="st83" d="M1144.4,602v152"/>
			</g>
			<g>
				<path class="st19" d="M915.9,573h303v10h-303V573z"/>
				<path class="st73" d="M915.9,583h303v19h-303V583z"/>
				<rect x="915.9" y="590" class="st3" width="34" height="6"/>
				<rect x="960.9" y="590" class="st3" width="50" height="6"/>
			</g>
			<path class="st1" d="M992.5,646.5l-4.1,4.1l4.9,4.9l-2.2,2.2l-4.9-4.9l-4.1,4.1l-6.1-16.4L992.5,646.5L992.5,646.5z"/>
			<g>
				<path class="st84" d="M1016.9,623h101v114h-101V623z"/>
				<path class="st85" d="M1029.9,717h77v8h-77V717z"/>
				<rect x="1029.9" y="703" class="st3" width="77" height="8"/>
				<rect x="1029.9" y="689" class="st3" width="77" height="8"/>
				<rect x="1029.9" y="674" class="st3" width="77" height="8"/>
				<rect x="1029.9" y="660" class="st3" width="77" height="8"/>
				<path class="st4" d="M1016.9,622h101v19h-101V622z"/>
			</g>
		</g>
	</g>
	<g>
		<g>
			<path class="st86" d="M2476.1,580h213.7c5,0,9.1,4.1,9.1,9.1v147.7c0,5-4.1,9.1-9.1,9.1h-213.7c-5,0-9.1-4.1-9.1-9.1V589.1
				C2467,584.1,2471.1,580,2476.1,580z"/>
			<g>
				<path class="st87" d="M2507,627h25v27h-25V627z"/>
				<line class="st88" x1="2525" y1="633.5" x2="2515" y2="633.5"/>
				<line class="st88" x1="2513" y1="638.5" x2="2520" y2="638.5"/>
				<line class="st88" x1="2525" y1="642.5" x2="2517" y2="642.5"/>
				<line class="st88" x1="2522" y1="646.5" x2="2514" y2="646.5"/>
			</g>
			<g>
				<path class="st87" d="M2637,615h25v27h-25V615z"/>
				<line class="st88" x1="2653" y1="621.5" x2="2643" y2="621.5"/>
				<line class="st88" x1="2643" y1="626.5" x2="2646.5" y2="626.5"/>
				<line class="st88" x1="2651" y1="630.5" x2="2643" y2="630.5"/>
				<line class="st88" x1="2655" y1="634.5" x2="2647" y2="634.5"/>
			</g>
			<g>
				<path class="st87" d="M2547,612h25v27h-25V612z"/>
				<line class="st88" x1="2553" y1="616.5" x2="2559" y2="616.5"/>
				<line class="st88" x1="2555" y1="620.5" x2="2564" y2="620.5"/>
				<line class="st88" x1="2555" y1="623.5" x2="2564" y2="623.5"/>
				<line class="st88" x1="2553" y1="628.5" x2="2565" y2="628.5"/>
			</g>
		</g>
		<g>
			<g>
				<line class="st88" x1="2570.5" y1="714.2" x2="2590.7" y2="726.6"/>
				<polyline class="st88" points="2575,712.9 2569.6,713.7 2572.3,718.7 				"/>
			</g>
			<g>
				<line class="st88" x1="2600" y1="623.5" x2="2613.3" y2="627.8"/>
				<line class="st88" x1="2598" y1="631.5" x2="2613.3" y2="633.5"/>
				<line class="st88" x1="2596.7" y1="638.5" x2="2613.3" y2="639.8"/>
				<line class="st88" x1="2605" y1="645.2" x2="2610" y2="645.2"/>
				<line class="st88" x1="2548.7" y1="673.8" x2="2629.7" y2="673.8"/>
				<line class="st88" x1="2506.3" y1="685.5" x2="2575" y2="691.8"/>
				<path class="st88" d="M2629.7,691.8c0,0,26.7-5.3,39.7-26.3"/>
				<path class="st88" d="M2552.6,712.9c0,0-5,0.6-7.7,4.2c0,0-5,6.2,0.7,11.4c0.8,0.7,4.2,3.4,10.2,0.9c0,0,5.4-3.9,2.8-10.8
					C2558.6,718.7,2555.3,712.7,2552.6,712.9z"/>
			</g>
		</g>
	</g>
	<g>
		<path class="st89" d="M949.4,1070c0,0-3.9-1.2-7.2,0.8c0,0-2.9,3.2-2.2,5.4c0,0,0.7-5,5.2-4c0,0,4,0.3,5,4c0,0,0.7,4.7-2.3,6.2
			c0,0-3,2-6,0.8c0,0-9.5-4.2-19.2-3.3c0,0-11,1.1-15.2-2.1c0,0-7.5-5.3-8.8-10.3c0,0-2.3-7.8-5-10.5l-5.8-4.8v7.3c0,0,0,0-0.1,0
			v34.2l0.2,3.4h43.5l19.1-2.3l3.1-12.5C953.6,1082.4,955.3,1070.9,949.4,1070z"/>
		<g>
			<path class="st70" d="M862.9,1087.9v18c0,0,0,5,5.3,5h92.7c0,0,5.3-0.3,5.3-4.7v-18.3c0,0,0-5.7-5.7-5.7h-7.2
				c0,0-5.3-0.5-9.2,2.2c0,0-14.7,8.8-27.8,8.7c0,0-17.7-0.7-23.3-4.8c0,0-9.5-5.6-16.2-6h-6.7
				C870.2,1082.2,862.9,1080.9,862.9,1087.9z"/>
			<path class="st90" d="M862.9,1105.9c0,0,0,5,5.3,5h92.7c0,0,5.3-0.3,5.3-4.7v-2.3H862.9V1105.9z"/>
		</g>
		<path class="st89" d="M887.7,1059.8c0,0-5.5-0.5-8.7,2.5c0,0-3.7-0.6-5.1-0.3c0,0,2.1,0.9,2.4,1.8c0,0-2.1-0.6-2.8-0.3
			c0,0,2.1,0.9,2.1,2.2c0,0-2.6-1.6-3.5-1.2c0,0,1.9,1.1,2.1,2.2c0,0-1.2-0.9-2.1-0.4c0,0,1.9,0.4,1.8,1.3l-4.1,4.2
			c0,0-3.8,2.7-1.8,4.8l4.4,8.9c0,0,1.3,2.8,0.3,3.8c0,0,1.2-1,1.1-3c0,0,1.4,1.4,1,4.5c0,0,1.4-0.8,1.8-2.2c0,0,1.9,1.8,1.6,4.2
			c0,0,1.3-0.7,1.1-4.1c0,0,0.7,1.2,0.7,2.5c0,0,1.1-1.3,1-3.6c0,0.4,0.2,1.6,1.7,2.1c0,0-1.4-2.6-0.4-3.8c0,0,0.7-0.1,1.2,0.8
			c0,0,0.7-0.3-0.3-3.7c0,0-0.4-2.8,0.7-2.9c0,0,0.5,0.6,0.5,2c0,0,0.8-1.2,0.9-2.8c0,0,0.9-2.9,1.1-0.9c0,0,0.2,5.2,1.3,7.4l0,0
			V1059.8z"/>
	</g>
	<path class="st2" d="M2480.9,1057.4c-11.7-7.1-24.3-15.6-27.6-28.9c-1.3-5.5-0.8-11.4,0.2-17c1.5-7.9,4.1-15.8,8.7-22.4
		c4.9-7.1,12.1-12.7,15.5-20.6s2.7-16.8,3-25.4c0.4-13.2,3.4-26.5,9.9-38.1c6.5-11.5,16.5-21.3,28.8-26.3"/>
	<path class="st2" d="M2480.3,1030.3c0,0-13.8-5.8-11-19.2c0,0,1.9-5.5,4.6-8.2c0,0,7.1-7.8,7.2-16.9c0,0,2-10.6-10-20.9
		c0,0-14.2-11.2-13.2-28.6c0,0,0.6-15.4,12.9-21.2c0,0,10-6,22.5-1.6c0,0,11.6,3,18.9,12.5c0,0,7.4,10,17.2,10.5"/>
	<g>
		<g>
			<g>
				<g>
					<path class="st63" d="M2706.1,1082.2l-11.2,8.2l-3.2-4.4c0,0-1-3.4-6.6-7l12.6-9.2l7.1,6.9L2706.1,1082.2z"/>
					<path class="st1" d="M2691.7,1086.2c9.3,0.3,5.8-4.3,12.9-9.4l10,9.3l-29.9,21.8C2681.4,1097.2,2694.4,1100.8,2691.7,1086.2z"
						/>
				</g>
				<g>
					<path class="st63" d="M2709,1103.3h-13.9v-5.5c0,0,1.2-3.3-1.2-9.5h15.6l1.7,9.8L2709,1103.3z"/>
					<path class="st1" d="M2695.2,1097.6c7.3,5.7,7.2-0.1,15.9,0l2.6,13.4h-37C2680.4,1100.5,2688.8,1111,2695.2,1097.6z"/>
				</g>
				<g>
					<path class="st19" d="M2647.4,958h37.7l1.5,8l23.8,127h-32.9l-2.7-12.3l-10.8-48.4l-4.7-21.1l-10.1-45.2L2647.4,958L2647.4,958
						z"/>
					<path class="st19" d="M2656.3,1025.5l13.1-67.5H2631c0,0,0.7,13.3,1.3,19.8c0,0-1.5,23.8-3.2,30.2c0,0-3.8,13.2,0,20.8
						c0,0,1.7,8.8,9.5,15.5l47,46.3l17.1-21.5L2656.3,1025.5z"/>
					<g>
						<path class="st1" d="M2685.2,958l1.5,8h-55.1c-0.1-2.6-0.3-5.3-0.6-8H2685.2z"/>
						<rect x="2667.9" y="958" class="st91" width="3" height="8"/>
						<rect x="2645.9" y="958" class="st91" width="3" height="8"/>
					</g>
				</g>
			</g>
			<g>
				<path class="st92" d="M2591.6,851.1l0.6,6.8c0,0,0,4.2-0.3,5.8c0,0-0.4,1.8,1.2,2.3c0,0,2.1,0.3,2.8,3l0.8,2.8
					c0,0,0.8,2.9,3.3,3.1c0,0,2.2-0.3,3.5,0c0,0,3.8,0.8,4.8,3.5c0,0,3.2,6.7,1.8,12.3l27.8-6.9c0,0-11-3.7-12.9-10.5l0.4-6.7
					l-5.7-19l-14-8.4l-8.2,3.6L2591.6,851.1z"/>
				<path class="st93" d="M2626.7,844.3c0,0-4.9-7.8-11.5-9.3c0,0-8.2-1.3-13,1.2c0,0-8,3.8-10,11.3c0,0-2.7-0.3-2.9,1.5
					c0,0-0.6,2.5,0.9,2.8c0.9,0.2,1.2,1,3.5,0c0,0,4.9-2.7,7.6-6.7l1.2,11.5c0,0,0.7,6.8,0.8,8l3.9-0.5l-0.8-5.8
					c-0.3-0.6-0.4-1.3-0.4-2c0-2.8,2.3-5.1,5.1-5.1s5.1,2.3,5.1,5.1c0,0.7-0.2,1.4-0.4,2.1c0,1,0.1,3.6,1.4,5.5c0,0,2.9,4.1,7.8,3.8
					l2.7-8.2C2627.5,859.4,2630.6,850.8,2626.7,844.3z"/>
			</g>
			<g>
				<g>
					<path class="st66" d="M2571.7,934.8c0,0-3.3-0.1-5.6-0.4c0,0-3.1-0.6-0.8-1.7l3.6-0.3l-3.7-3.2l-4.2,3.9c0,0-1.2,1.4-2.4,0.4
						c0,0-0.8-0.4,0-1.5l2.6-3.3l5-0.8l4.8,2.8L2571.7,934.8z"/>
					<path class="st94" d="M2620.2,939.4l-37.8-4.2h-3.8c0,0-7.1,2.6-11-2.1l-3.9-3.3l-6.8,1.6l-4.2,1.3c0,0-2.3,0.8-2.2-1
						c0,0,0.1-1.2,1.5-1.6l9.4-4.4c0,0,2.7-1.8,4.9-0.6c0,0,6,4,10.8,4.1l41-6.2L2620.2,939.4z"/>
				</g>
				<path class="st92" d="M2602.9,930.2l-9.5,5.8c0,0-12.2,3-16.5-4.2c0,0-3.4-5.5-1.8-13.6l4.6-27.2c0,0,1.1-4.6-0.1-7.8
					c0,0-0.2-1.7,0.5-3l2.2-6.1c0,0,1-1.6,2-1.5c0,0,1.4-0.2,1.6,0.6c0,0,1-0.8,1.6-0.7c0,0,0.8-0.2,1.2,0.5l0.6,0.8
					c0,0,0.7-1.1,1.6-0.9c0,0,1.3-0.3,2,0.6l0.9-1.4c0,0,0.7-0.9,1.7-0.3c0,0,1.1,0.3,0.8,2l-1.1,2.5c0,0,0.1,0.4,1-0.1l1.1-0.9
					c0,0,0.9-0.4,0.6,1.3c0,0-0.4,3-0.9,3.5c0,0-1.6,4.3-3.8,4.7c0,0-4.3,1.8-5.4,4.6l-0.2,27.3l2.8-2.9L2602.9,930.2z"/>
				<path class="st65" d="M2587.4,916.9c0,0,16.2,18.2,17.8,21l10.2-10.5c0,0,1,8,1.5,12.2c0,0-2.1,15.4,14.1,18.3h54.2
					c0,0-5.7-40.3-26.4-59.8c0,0-19.9-16-26.7-17.5c0,0-15.8-4-23.5,7.8L2587.4,916.9z"/>
			</g>
		</g>
		<g>
			<g>
				<path class="st1" d="M2532.9,920.4l-7.5,1.3l-19.2-109.1l7.5-1.3L2532.9,920.4z"/>
				<circle class="st1" cx="2508.8" cy="870.4" r="7.8"/>
				<path class="st1" d="M2493.3,933.7v3.5h29.6v-3.5h-11.8v-58.8h-4.4v48.5c0,0-0.4,9.9-6.4,10.2L2493.3,933.7L2493.3,933.7
					L2493.3,933.7z"/>
			</g>
			<path class="st1" d="M2561.9,934.5l-34.9-2.8c0,0-1,4.5,3.9,5.5h30C2560.9,937.2,2563.6,936.5,2561.9,934.5z"/>
		</g>
	</g>
	<path class="st3" d="M2594.5,949h-154v-12h154V949z"/>
	<path class="st70" d="M2577.5,1111h-9V949h9V1111z"/>
	<g>
		<path class="st69" d="M2462,1020h39v91h-39V1020L2462,1020z"/>
		<path class="st70" d="M2462,1020h39v54h-39V1020L2462,1020z"/>
		<g>
			<circle class="st71" cx="2488.2" cy="1081.1" r="2.3"/>
			<circle class="st71" cx="2495.1" cy="1081.1" r="2.3"/>
		</g>
		<g>
			<rect x="2462" y="1092" class="st70" width="26" height="1"/>
			<rect x="2462" y="1095" class="st70" width="26" height="1"/>
			<rect x="2462" y="1098" class="st70" width="26" height="1"/>
		</g>
		<path class="st69" d="M2462,1020v26.2c0,0,6.3,4.8,20.2,4.8c0,0,15.5-0.8,18.8-4.8V1020H2462z"/>
		<g>
			<rect x="2478.3" y="1030.6" class="st72" width="22.6" height="4.8"/>
			<circle class="st72" cx="2478.3" cy="1033" r="2.4"/>
		</g>
	</g>
	<path class="st70" d="M2457.5,949h9v162h-9V949z"/>
	<g>
		<path class="st65" d="M2532.8,1068.4c0,0-0.8-8.2-15.8-15.2c0,0-12.5-4.5-9.8-9.8c0,0,1.5-2.8,6.8,0c0,0,7.9,3.9,10.5,8.5
			c0,0,6.6,8.6,7.6,11.4c0,0,1.2-6.5-10.4-18.8c0,0-14.1-10.6-14-13.2c0,0-1.2-3.6,3.1-2.6c0,0,6.1,0.8,10.8,8.9
			c0,0,7.2,9.8,8.1,14.6c0,0,0.2-9.2-3-15.1c0,0-4.6-5.6-8.5-8.5c0,0-6.8-4.1-8.4-5.7c0,0-2.4-3.6,0.1-5.2c0,0,2.4-2.2,6.2,0
			c0,0,8.4,5.4,10.8,12.9c0,0,2.9,6.5,2.9,9.2c0,0,2.1-8.2-6.4-19.6c0,0-5.9-6.5-9.1-8.1c0,0-7-3-6.4-6.4c0,0,0.4-3,2.9-3.6
			c0,0,4.2-0.9,7.2,2.4c0,0,7.2,6.9,9,11.8c0,0,3.6,8,4.1,10.5c0,0,0.2-10.8-5.6-20.5l-6.8-8.8c0,0-4.4-4.4-3.9-7.2
			c0,0,0.2-2.9,2.6-2.9c0,0,3.1-0.1,5.1,3.8c0,0,6.2,8.9,7.2,13.2c0,0,1.5,6.1,1.6,8.4c0,0,4.2-10.8-2.4-24.1c0,0-4.9-9.8-4.6-12.4
			c0,0,0.4-4,3-3.6c0,0,3-0.1,4.8,4.8c0,0,3.1,7.4,2.6,17.2c0,0-0.1,6.2,1.2,0.6c0,0,1.5-9,7.9-13.6c0,0,3.1-2.9,5.6-1.8
			c0,0,3.5,2.9,0,6.6c0,0-9.2,7.1-11.4,10.2c0,0-3.2,5.1-3.2,8.1c0,0,4.8-4.2,7.4-6.2c0,0,6.1-4.2,8.8-4c0,0,4.3-0.6,3.4,3
			c0,0-0.2,2.4-4.4,4.2c0,0-4.6,2.4-7.9,2.6c0,0-7.6,3.2-8.4,8.2c0,0,4.5-3.2,6.6-4.4c0,0,4.4-3.1,8.9-3.8c0,0,4.4-0.8,4.2,1.9
			c0,0,0.5,2.5-4,3.9c0,0-8.1,1.4-11.8,4.5c0,0-5.2,4-4.2,14.6c0,0,1.8-6.4,6.9-9.5c0,0,5.6-4.5,9.4-4.4c0,0,3.8,0,4.1,2.2
			c0,0,2.2,2.5-3.4,4.8c0,0-11.5,2.5-16.2,9.9c0,0-1.9,2.5-1.6,5.5c0,0,5.2-6.6,8.1-7.6c0,0,4.9-3.1,7.9-3c0,0,4.5-0.2,2.1,4.4
			c0,0-2.8,2.6-6,3.2c0,0-9.9,3.9-11,9.2c0,0-1.6,6.4-0.9,9.5c0,0,2.9-6.6,6.2-8.5c0,0,4.1-4,7.8-4.5c0,0,4.8-1.6,5.1,0.4
			c0,0,1.5,2.6-4.4,4.1c0,0-8.1,2.5-10.1,5.6c0,0-4.6,6.2-4.2,11c0,0,3.1-6,8.1-8.6c0,0,4.9-2.9,7.1-3.4c0,0,3.4-1.4,4.5,0.9
			c0,0,2.6,2.5-4.5,5.4c0,0-8.1,2.9-9.4,4.4c0,0-3.8,2-4.4,8.1L2532.8,1068.4L2532.8,1068.4z"/>
		<g>
			<path class="st62" d="M2558,1064l-12.5,45h-26.4l-12.5-45H2558z"/>
			<path class="st95" d="M2512.7,1085.1l41.5-7.6l3.7-13.5h-51.1L2512.7,1085.1z"/>
		</g>
	</g>
</g>
</svg>
